<?xml version="1.0" standalone="no"?>
<!DOCTYPE svg PUBLIC "-//W3C//DTD SVG 1.1//EN" "http://www.w3.org/Graphics/SVG/1.1/DTD/svg11.dtd" >
<svg xmlns="http://www.w3.org/2000/svg" xmlns:xlink="http://www.w3.org/1999/xlink" version="1.1">
<metadata>
Created by FontForge 20160407 at Thu Aug 18 19:08:22 2016
 By Jimmy Warting
Modern and elegant sans serif font.
</metadata>
<defs>
<font id="Nexa-XBold" horiz-adv-x="612" >
  <font-face 
    font-family="Nexa XBold"
    font-weight="800"
    font-stretch="normal"
    units-per-em="1000"
    panose-1="2 0 0 0 0 0 0 0 0 0"
    ascent="750"
    descent="-250"
    x-height="493"
    cap-height="700"
    bbox="-162 -294 1116.75 958"
    underline-thickness="50"
    underline-position="-100"
    unicode-range="U+0020-FB02"
  />
<missing-glyph horiz-adv-x="632" 
d="M235 138c0 -75 108 -75 108 0c0 76 -108 76 -108 0zM127 444h91c-1 45 42 71 86 71c42 0 91 -13 92 -69c1 -44 -40 -49 -77 -68c-35 -21 -72 -43 -71 -140l90 -1c0 33 6 54 24 66c38 28 128 39 126 143c0 107 -89 151 -184 151s-178 -48 -177 -153zM37 0v700h538v-700
h-538z" />
    <glyph glyph-name=".notdef" horiz-adv-x="632" 
d="M235 138c0 -75 108 -75 108 0c0 76 -108 76 -108 0zM127 444h91c-1 45 42 71 86 71c42 0 91 -13 92 -69c1 -44 -40 -49 -77 -68c-35 -21 -72 -43 -71 -140l90 -1c0 33 6 54 24 66c38 28 128 39 126 143c0 107 -89 151 -184 151s-178 -48 -177 -153zM37 0v700h538v-700
h-538z" />
    <glyph glyph-name=".notdef" horiz-adv-x="632" 
d="M235 138c0 -75 108 -75 108 0c0 76 -108 76 -108 0zM127 444h91c-1 45 42 71 86 71c42 0 91 -13 92 -69c1 -44 -40 -49 -77 -68c-35 -21 -72 -43 -71 -140l90 -1c0 33 6 54 24 66c38 28 128 39 126 143c0 107 -89 151 -184 151s-178 -48 -177 -153zM37 0v700h538v-700
h-538z" />
    <glyph glyph-name=".null" horiz-adv-x="0" 
 />
    <glyph glyph-name="CR" horiz-adv-x="202" 
 />
    <glyph glyph-name="space" unicode=" " horiz-adv-x="242" 
 />
    <glyph glyph-name="eth" unicode="&#xf0;" horiz-adv-x="587" 
d="M235 478c54 8 122 -3 154 -31c-18 48 -81 92 -100 97l-31 -35l-59 39l26 31c-22 13 -59 20 -82 23l22 99c51 -7 94 -19 132 -36l43 51l60 -43l-37 -43c140 -110 183 -230 183 -379c0 -153 -95 -260 -254 -260c-170 0 -255 122 -255 247c0 109 66 216 198 240zM292 100
c86 0 129 69 129 139c0 69 -43 138 -129 138s-130 -69 -130 -138c0 -70 44 -139 130 -139z" />
    <glyph glyph-name="thorn" unicode="&#xfe;" horiz-adv-x="638" 
d="M339 106c77 0 140 51 140 140s-63 140 -140 140s-140 -63 -140 -140s63 -140 140 -140zM188 -206h-122v906h122v-274c33 52 105 78 161 78c144 0 252 -88 252 -258s-106 -258 -250 -258c-52 0 -124 20 -163 79v-273z" />
    <glyph glyph-name="sterling" unicode="&#xa3;" horiz-adv-x="662" 
d="M243 480c0 -35 8 -69 16 -103h207v-111h-184c4 -46 -10 -115 -65 -141h392v-125h-552v125c66 16 94 72 92 141h-92v111h71c-8 31 -18 69 -18 101c0 147 97 233 255 233c140 0 234 -62 241 -211h-121c-6 65 -45 95 -119 95c-92 0 -123 -53 -123 -115z" />
    <glyph glyph-name="quotesingle" unicode="'" horiz-adv-x="245" 
d="M67 699h111v-268h-111v268z" />
    <glyph glyph-name="ampersand" unicode="&#x26;" horiz-adv-x="712" 
d="M322 306c-97 0 -140 -52 -140 -94c0 -74 73 -103 146 -103c47 0 146 25 146 96v101h-152zM599 306v-102c0 -41 18 -76 63 -76v-131c-52 0 -110 12 -132 92c-46 -75 -126 -98 -200 -98c-153 0 -277 49 -278 222c0 59 43 124 108 146c-63 20 -94 87 -94 142
c1 149 142 210 267 210c122 0 255 -47 256 -198h-125c0 64 -63 86 -134 86c-103 0 -137 -57 -136 -98c0 -71 88 -91 135 -91h328v-104h-58z" />
    <glyph glyph-name="percent" unicode="%" horiz-adv-x="776" 
d="M198 713c217 0 217 -314 0 -314s-217 314 0 314zM545 701h141l-460 -702h-142zM578 307c217 0 217 -314 0 -314s-217 314 0 314zM578 215c-86 0 -86 -131 0 -131s86 131 0 131zM198 622c-86 0 -86 -131 0 -131s86 131 0 131z" />
    <glyph glyph-name="dollar" unicode="$" horiz-adv-x="698" 
d="M632 582l-108 -50c-26 43 -100 76 -169 76c-83 0 -159 -24 -159 -94c0 -66 79 -78 163 -88c146 -18 302 -44 302 -220c0 -135 -113 -211 -237 -220v-100h-127v95c-112 10 -216 61 -263 171l118 50c27 -64 116 -105 199 -105c90 0 173 31 173 109c0 66 -83 90 -176 101
c-143 16 -283 41 -283 207c0 131 116 191 232 205v87h127v-87c85 -13 163 -45 208 -137z" />
    <glyph glyph-name="numbersign" unicode="#" horiz-adv-x="702" 
d="M253 700h134l-37 -150h109l38 150h133l-37 -150h72v-116h-101l-47 -182h79v-117h-106l-33 -135h-134l33 135h-110l-33 -135h-133l33 135h-76v117h106l46 183h-83v115h110zM441 443h-126l-50 -198h126z" />
    <glyph glyph-name="quotedbl" unicode="&#x22;" horiz-adv-x="424" 
d="M67 698h111v-268h-111v268zM245 698h112v-268h-112v268z" />
    <glyph glyph-name="exclam" unicode="!" horiz-adv-x="288" 
d="M78 699h131v-516h-131v516zM64 72c0 106 160 106 160 0c0 -105 -160 -105 -160 0z" />
    <glyph glyph-name="comma" unicode="," horiz-adv-x="252" 
d="M197 52c0 -12 1 -9 -45 -150h-69l19 99c-28 5 -47 23 -47 54c0 92 142 88 142 -3z" />
    <glyph glyph-name="period" unicode="." horiz-adv-x="252" 
d="M54 63c0 95 144 95 144 0s-144 -95 -144 0z" />
    <glyph glyph-name="colon" unicode=":" horiz-adv-x="266" 
d="M62 63c0 94 142 94 142 0c0 -93 -142 -93 -142 0zM62 353c0 94 142 94 142 0c0 -93 -142 -93 -142 0z" />
    <glyph glyph-name="semicolon" unicode=";" horiz-adv-x="271" 
d="M66 353c0 94 142 94 142 0c0 -93 -142 -93 -142 0zM206 52c0 -12 1 -9 -45 -150h-69l19 99c-28 5 -47 23 -47 54c0 92 142 88 142 -3z" />
    <glyph glyph-name="question" unicode="?" horiz-adv-x="604" 
d="M192 75c0 106 160 106 160 0c0 -105 -160 -105 -160 0zM167 490h-134c1 148 126 214 267 214s271 -61 268 -211c0 -145 -133 -160 -191 -199c-27 -18 -38 -46 -38 -93l-132 1c1 137 57 168 110 196s114 36 114 96c0 77 -71 95 -133 95c-64 0 -130 -36 -131 -99z" />
    <glyph glyph-name="at" unicode="@" horiz-adv-x="925" 
d="M465 564c-180 0 -327 -123 -327 -321c0 -226 153 -308 322 -308c40 0 97 7 148 38l38 -74c-68 -40 -131 -49 -189 -49c-204 0 -412 117 -412 393c0 263 204 403 420 403c239 0 423 -123 423 -395c0 -159 -66 -261 -183 -261c-39 0 -101 18 -101 94
c-22 -61 -101 -87 -144 -87c-144 0 -256 101 -256 246c0 132 92 231 216 247c63 6 143 -13 177 -75l8 51l86 -13v-357c0 -16 19 -23 29 -20c62 20 76 93 76 172c0 215 -117 316 -331 316zM457 386c-93 0 -136 -71 -136 -142s43 -140 137 -140c91 0 137 66 137 145
c0 75 -45 137 -138 137z" />
    <glyph glyph-name="Euro" unicode="&#x20ac;" horiz-adv-x="614" 
d="M543 123l37 -122c-37 -11 -81 -17 -121 -17c-205 0 -311 102 -347 241h-68v97h54v23c0 10 0 20 1 30h-55v98h71c40 137 148 241 344 241c37 0 73 -5 108 -16l-42 -118c-22 6 -44 8 -66 8c-106 0 -174 -50 -210 -115h228l-22 -98h-236c-1 -10 -1 -20 -1 -30
c0 -8 0 -16 1 -23h220l-20 -97h-173c34 -67 101 -117 213 -117c27 0 56 5 84 15z" />
    <glyph glyph-name="florin" unicode="&#x192;" horiz-adv-x="473" 
d="M143 -2v381h-92v107h92v33c0 132 89 193 188 193c43 0 88 -14 128 -40l-45 -91c-26 17 -50 26 -75 26c-42 0 -74 -28 -74 -88v-33h145v-107h-145v-381c0 -132 -89 -193 -188 -193c-43 0 -73 10 -113 36l45 91c26 -17 35 -22 60 -22c42 0 74 28 74 88z" />
    <glyph glyph-name="exclamdown" unicode="&#xa1;" horiz-adv-x="269" 
d="M69 -232h131v516h-131v-516zM214 395c0 -106 -160 -106 -160 0c0 105 160 105 160 0z" />
    <glyph glyph-name="cent" unicode="&#xa2;" horiz-adv-x="539" 
d="M420 138l75 -88c-38 -36 -82 -61 -134 -71v-70h-113v72c-118 27 -200 129 -200 253c0 119 76 224 200 253v73h113v-72c50 -10 95 -33 133 -70l-71 -79c-27 27 -77 44 -113 44c-77 0 -141 -65 -141 -149s64 -148 141 -148c36 0 83 24 110 52z" />
    <glyph glyph-name="copyright" unicode="&#xa9;" horiz-adv-x="823" 
d="M415 719c232 0 361 -167 361 -365s-129 -365 -361 -365c-231 0 -368 167 -368 365s137 365 368 365zM431 161c59 0 104 23 145 63l-65 61c-23 -23 -46 -35 -80 -35c-58 0 -110 37 -110 102c0 70 51 107 110 107c32 0 56 -11 79 -33l64 59c-40 40 -86 62 -143 62
c-113 0 -203 -71 -203 -195s91 -191 203 -191zM153 354c0 -151 100 -270 262 -270c163 0 255 119 255 270s-92 270 -255 270c-162 0 -262 -119 -262 -270z" />
    <glyph glyph-name="registered" unicode="&#xae;" horiz-adv-x="817" 
d="M408 716c232 0 362 -167 362 -365s-130 -365 -362 -365c-231 0 -361 167 -361 365s130 365 361 365zM153 351c1 -151 93 -270 255 -270c163 0 255 119 255 270s-92 270 -255 270c-162 0 -254 -119 -255 -270zM586 189l-91 112c133 30 106 234 -56 234h-175v-367h97v114
h34l87 -114h104v21zM361 448h78c57 0 57 -84 0 -84h-78v84z" />
    <glyph glyph-name="questiondown" unicode="&#xbf;" horiz-adv-x="597" 
d="M408 438c1 -105 -160 -105 -159 1c0 105 160 105 159 -1zM567 23l-134 1c-2 -63 -68 -99 -132 -99c-62 0 -132 19 -132 95c0 60 61 68 114 96s109 59 110 196v5l-132 1l1 -5c-1 -47 -11 -75 -39 -93c-58 -39 -191 -60 -191 -198c-3 -151 126 -212 268 -212
c141 -1 266 66 267 213z" />
    <glyph glyph-name="B" unicode="B" horiz-adv-x="722" 
d="M213 303v-180h202c54 0 131 18 131 84c0 63 -77 96 -131 96h-202zM213 580v-161h202c83 0 110 35 110 75c0 32 -26 86 -110 86h-202zM415 700c138 0 241 -62 241 -203c0 -54 -26 -106 -91 -135c82 -25 112 -112 112 -156c0 -156 -117 -206 -262 -206h-332v700h332z" />
    <glyph glyph-name="A" unicode="A" horiz-adv-x="778" 
d="M631 0l-59 132h-366l-60 -132h-143l314 700h144l314 -700h-144zM519 255l-130 298l-130 -298h260z" />
    <glyph glyph-name="C" unicode="C" horiz-adv-x="700" 
d="M590 179l90 -91c-72 -71 -165 -104 -266 -104c-260 0 -370 179 -371 361c-1 183 118 369 371 369c95 0 185 -36 257 -107l-88 -85c-46 45 -108 66 -169 66c-169 0 -242 -126 -241 -243c1 -116 68 -237 241 -237c61 0 130 25 176 71z" />
    <glyph glyph-name="D" unicode="D" horiz-adv-x="751" 
d="M358 700c240 0 347 -171 350 -344c3 -177 -105 -356 -350 -356h-275v700h275zM214 575v-448h144c159 0 222 116 219 230c-3 109 -67 218 -219 218h-144z" />
    <glyph glyph-name="E" unicode="E" horiz-adv-x="665" 
d="M607 130v-130h-524v700h524v-128h-393v-161h379v-123h-379v-158h393z" />
    <glyph glyph-name="F" unicode="F" horiz-adv-x="627" 
d="M215 0h-132v699h503v-127h-371v-191h351v-122h-351v-259z" />
    <glyph glyph-name="G" unicode="G" horiz-adv-x="743" 
d="M672 613l-82 -84c-47 45 -117 70 -178 70c-150 0 -241 -114 -241 -258c0 -115 67 -234 241 -234c55 0 103 12 158 56v124h-179v118h300v-295c-69 -79 -156 -126 -279 -126c-263 0 -370 173 -370 357c0 197 123 379 370 379c94 0 188 -36 260 -107z" />
    <glyph glyph-name="H" unicode="H" horiz-adv-x="773" 
d="M690 -1h-131v283h-344v-283h-132v700h132v-295h344v295h131v-700z" />
    <glyph glyph-name="I" unicode="I" horiz-adv-x="297" 
d="M214 0h-131v700h131v-700z" />
    <glyph glyph-name="J" unicode="J" horiz-adv-x="710" 
d="M636 700v-401c0 -181 -115 -313 -308 -313c-179 0 -307 107 -307 305h130c0 -120 58 -181 177 -181c120 0 176 83 176 189v278h-211v123h343z" />
    <glyph glyph-name="K" unicode="K" horiz-adv-x="666" 
d="M645 700v-4l-311 -335l337 -353v-8h-163l-293 310v-310h-132v700h132v-296l266 296h164z" />
    <glyph glyph-name="L" unicode="L" horiz-adv-x="592" 
d="M83 700h132v-578h360v-122h-492v700z" />
    <glyph glyph-name="M" unicode="M" horiz-adv-x="907" 
d="M692 -1v508l-228 -304h-26l-223 305v-509h-132v700h152l219 -301l219 301h151v-700h-132z" />
    <glyph glyph-name="N" unicode="N" horiz-adv-x="777" 
d="M190 700l372 -471v471h132v-700h-107l-372 466v-466h-132v700h107z" />
    <glyph glyph-name="O" unicode="O" horiz-adv-x="802" 
d="M405 714c239 -2 358 -186 356 -368c-2 -181 -113 -362 -359 -362s-360 177 -360 361c0 221 160 369 363 369zM172 343c3 -115 65 -238 230 -238s227 124 229 239c2 117 -65 247 -226 250c-149 0 -237 -112 -233 -251z" />
    <glyph glyph-name="P" unicode="P" horiz-adv-x="696" 
d="M215 575v-248h198c169 0 168 248 0 248h-198zM413 206h-198v-206h-132v700c109 0 221 1 330 1c344 0 345 -492 0 -495z" />
    <glyph glyph-name="Q" unicode="Q" horiz-adv-x="804" 
d="M403 717c246 0 356 -178 359 -358c1 -80 -20 -163 -65 -228l83 -82l-93 -93l-85 84c-53 -34 -120 -52 -199 -52c-249 0 -359 181 -360 363c-1 183 114 366 360 366zM403 598c-165 0 -232 -132 -230 -250c2 -115 78 -238 230 -238c158 0 234 133 229 253
c-5 113 -64 235 -229 235z" />
    <glyph glyph-name="R" unicode="R" horiz-adv-x="728" 
d="M703 9v-9h-151l-203 234h-134v-234h-132v701c111 0 222 -1 333 -1c165 -1 252 -111 252 -232c0 -96 -44 -193 -177 -220zM416 577h-201v-224h201c84 0 120 56 120 112s-37 112 -120 112z" />
    <glyph glyph-name="S" unicode="S" horiz-adv-x="664" 
d="M605 585l-105 -54c-24 40 -90 78 -166 78c-98 0 -145 -41 -145 -93c0 -61 72 -78 156 -88c146 -18 282 -56 282 -223c0 -156 -138 -223 -294 -223c-143 0 -253 44 -305 172l110 57c31 -77 112 -111 197 -111c83 0 161 29 161 105c0 66 -69 93 -162 103
c-143 17 -275 55 -275 212c0 144 142 203 271 204c109 0 222 -31 275 -139z" />
    <glyph glyph-name="T" unicode="T" horiz-adv-x="610" 
d="M239 0v580h-222v120h576v-120h-222v-580h-132z" />
    <glyph glyph-name="U" unicode="U" horiz-adv-x="762" 
d="M557 699h131v-401c0 -207 -127 -313 -303 -313c-168 0 -311 102 -311 313v401h131v-401c0 -126 72 -193 181 -193s171 73 171 193v401z" />
    <glyph glyph-name="V" unicode="V" horiz-adv-x="731" 
d="M725 700l-291 -703h-137l-291 703h148l211 -545l212 545h148z" />
    <glyph glyph-name="W" unicode="W" horiz-adv-x="1073" 
d="M1061 700l-252 -700h-112l-87 220l-74 221l-73 -223l-85 -218h-112l-257 700h148l165 -505l170 505h86l175 -505l160 505h148z" />
    <glyph glyph-name="X" unicode="X" horiz-adv-x="670" 
d="M335 439l175 261h145v-6l-237 -340l244 -350v-4h-148l-179 263l-179 -263h-148v4l243 350l-236 340v6h145z" />
    <glyph glyph-name="Y" unicode="Y" horiz-adv-x="695" 
d="M168 700l178 -289l186 289h159v-6l-279 -405v-289h-132v289l-269 405v6h157z" />
    <glyph glyph-name="Z" unicode="Z" horiz-adv-x="620" 
d="M51 579v121h529v-62l-363 -513h363v-125h-547v76l355 503h-337z" />
    <glyph glyph-name="a" unicode="a" horiz-adv-x="638" 
d="M451 425l4 68h117v-493h-115l-6 72c-28 -58 -105 -86 -160 -87c-146 -1 -254 89 -254 262c0 170 113 259 257 258c66 0 129 -31 157 -80zM305 396c-81 0 -146 -55 -146 -149s65 -150 146 -150c192 0 192 299 0 299z" />
    <glyph glyph-name="b" unicode="b" horiz-adv-x="638" 
d="M339 391c-77 0 -143 -58 -143 -144c0 -89 66 -145 143 -145c78 0 140 59 140 145c0 89 -62 144 -140 144zM66 699h122v-273c29 51 110 79 162 79c144 0 251 -88 251 -258c0 -162 -109 -258 -254 -258c-60 0 -121 20 -159 79l-8 -68h-114v699z" />
    <glyph glyph-name="c" unicode="c" horiz-adv-x="506" 
d="M407 143l82 -80c-57 -56 -117 -78 -190 -78c-143 0 -262 86 -262 261s119 261 262 261c70 0 124 -20 178 -73l-77 -81c-29 26 -65 39 -99 39c-82 0 -142 -60 -142 -146c0 -94 64 -144 140 -144c39 0 78 11 108 41z" />
    <glyph glyph-name="d" unicode="d" horiz-adv-x="638" 
d="M299 391c-78 0 -140 -55 -140 -144c0 -86 62 -145 140 -145c77 0 143 56 143 145c0 86 -66 144 -143 144zM450 699h122v-699h-114l-8 68c-38 -59 -99 -79 -159 -79c-145 0 -254 96 -254 258c0 170 107 258 251 258c52 0 133 -28 162 -79v273z" />
    <glyph glyph-name="e" unicode="e" horiz-adv-x="581" 
d="M548 203h-385c8 -61 61 -105 147 -105c45 0 104 17 132 46l78 -77c-52 -54 -137 -80 -212 -80c-170 0 -271 105 -271 263c0 150 102 258 262 258c165 0 268 -102 249 -305zM165 304h266c-8 64 -58 96 -128 96c-66 0 -120 -32 -138 -96z" />
    <glyph glyph-name="f" unicode="f" horiz-adv-x="398" 
d="M238 0h-122v379h-92v107h92v33c0 132 89 193 188 193c43 0 88 -14 128 -40l-45 -91c-26 17 -50 26 -75 26c-42 0 -74 -28 -74 -88v-33h145v-107h-145v-379z" />
    <glyph glyph-name="g" unicode="g" horiz-adv-x="617" 
d="M434 478l55 68l90 -68l-62 -72c43 -51 57 -96 57 -147c0 -88 -41 -148 -122 -185c105 -38 122 -112 122 -160c0 -140 -137 -208 -269 -208c-171 0 -271 86 -266 227h121c-4 -69 68 -108 145 -109c68 0 142 29 142 90c0 59 -48 97 -140 97c-163 0 -270 94 -270 248
c0 166 132 250 270 250c39 0 93 -8 127 -31zM307 396c-80 0 -148 -45 -148 -137c0 -86 68 -136 148 -136s145 51 145 136c0 84 -65 137 -145 137z" />
    <glyph glyph-name="h" unicode="h" horiz-adv-x="603" 
d="M66 700h122v-274c44 57 98 74 154 74c140 0 202 -95 202 -240v-260h-122v259c0 90 -47 128 -112 128c-72 0 -122 -61 -122 -135v-252h-122v700z" />
    <glyph glyph-name="i" unicode="i" horiz-adv-x="254" 
d="M188 495h-122v-495h122v495zM55 632c0 95 144 95 144 0s-144 -95 -144 0z" />
    <glyph glyph-name="j" unicode="j" horiz-adv-x="253" 
d="M187 495h-121v-547c0 -54 -9 -80 -49 -82c-18 -1 -38 4 -59 14l-44 -95c35 -23 73 -33 109 -33c111 0 164 62 164 196v547zM55 633c0 95 144 95 144 0s-144 -95 -144 0z" />
    <glyph glyph-name="k" unicode="k" horiz-adv-x="529" 
d="M66 699h122v-404l166 198h146v-7l-201 -225l229 -252v-9h-147l-193 223v-223h-122v699z" />
    <glyph glyph-name="l" unicode="l" horiz-adv-x="259" 
d="M69 699h121v-699h-121v699z" />
    <glyph glyph-name="m" unicode="m" horiz-adv-x="897" 
d="M516 0h-122v264c0 65 -34 124 -101 124c-66 0 -105 -59 -105 -124v-264h-122v494h113l9 -60c26 50 83 68 130 68c59 0 118 -24 146 -92c44 70 101 90 165 90c140 0 209 -86 209 -234v-266h-122v266c0 65 -27 120 -93 120s-107 -57 -107 -122v-264z" />
    <glyph glyph-name="n" unicode="n" horiz-adv-x="613" 
d="M554 0h-122v258c0 75 -41 132 -119 132c-75 0 -126 -63 -126 -138v-252h-121v494h109l8 -67c50 49 100 74 162 74c116 0 209 -87 209 -242v-259z" />
    <glyph glyph-name="o" unicode="o" horiz-adv-x="585" 
d="M291 503c157 0 258 -116 258 -257c0 -142 -97 -257 -257 -257s-256 115 -256 257c0 141 98 257 255 257zM292 392c-88 0 -134 -72 -134 -146c0 -75 45 -145 134 -145s134 70 134 145c0 74 -52 146 -134 146z" />
    <glyph glyph-name="p" unicode="p" horiz-adv-x="637" 
d="M339 106c83 0 140 63 140 140s-52 140 -140 140s-140 -63 -140 -140s57 -140 140 -140zM188 -226h-122v719h114l8 -68c38 55 104 79 160 79c152 0 253 -113 253 -258c0 -144 -91 -258 -249 -258c-52 0 -129 16 -164 70v-284z" />
    <glyph glyph-name="q" unicode="q" horiz-adv-x="637" 
d="M298 106c83 0 140 63 140 140s-52 140 -140 140s-140 -63 -140 -140s57 -140 140 -140zM571 -226h-122v284c-35 -54 -112 -70 -164 -70c-158 0 -249 114 -249 258c0 145 101 258 253 258c56 0 122 -24 160 -79l8 68h114v-719z" />
    <glyph glyph-name="r" unicode="r" horiz-adv-x="453" 
d="M66 493h113l9 -57c38 61 89 70 139 70c51 0 100 -20 127 -47l-55 -106c-25 21 -48 32 -88 32c-64 0 -123 -34 -123 -125v-260h-122v493z" />
    <glyph glyph-name="s" unicode="s" horiz-adv-x="497" 
d="M444 442l-68 -80c-35 33 -75 44 -122 44c-58 0 -90 -18 -90 -49c0 -32 29 -50 92 -54c93 -6 211 -27 211 -158c0 -87 -71 -162 -212 -162c-78 0 -156 13 -228 88l60 87c47 -49 115 -68 170 -69c46 -1 89 18 89 54c0 34 -28 53 -98 57c-93 7 -204 41 -204 153
c0 114 118 154 208 154c77 0 135 -15 192 -65z" />
    <glyph glyph-name="t" unicode="t" horiz-adv-x="415" 
d="M121 619l122 13v-140h136v-105h-137v-213c0 -47 26 -70 64 -70c19 0 41 6 59 15l34 -104c-35 -14 -64 -20 -101 -21c-107 -4 -177 57 -177 180v213h-92v105h92v127z" />
    <glyph glyph-name="u" unicode="u" 
d="M58 493h122v-258c0 -75 41 -132 119 -132c75 0 126 63 126 138v252h121v-494h-109l-8 67c-51 -50 -98 -74 -167 -74c-118 0 -204 89 -204 242v259z" />
    <glyph glyph-name="v" unicode="v" horiz-adv-x="576" 
d="M431 494h133l-210 -496h-132l-211 496h133l68 -163l76 -208l75 206z" />
    <glyph glyph-name="w" unicode="w" horiz-adv-x="855" 
d="M374 494h107l108 -371l113 371h135l-172 -496h-142l-51 146l-44 165l-44 -165l-51 -146h-142l-173 496h136l113 -371z" />
    <glyph glyph-name="x" unicode="x" horiz-adv-x="528" 
d="M264 326l97 167h146v-4l-162 -239l172 -247v-3h-146l-107 165l-107 -165h-146v3l172 247l-162 239v4h146z" />
    <glyph glyph-name="y" unicode="y" horiz-adv-x="565" 
d="M421 493h135l-310 -719h-134l101 234l-197 485h142l75 -213l47 -139l51 136z" />
    <glyph glyph-name="z" unicode="z" horiz-adv-x="485" 
d="M48 493h395v-58l-227 -315h229v-120h-415v51l236 331h-218v111z" />
    <glyph glyph-name="zero" unicode="0" horiz-adv-x="710" 
d="M185 404v-108c0 -254 340 -254 340 0v108c0 250 -340 253 -340 0zM54 296v108c0 418 602 417 602 0v-108c0 -417 -602 -418 -602 0z" />
    <glyph glyph-name="one" unicode="1" horiz-adv-x="449" 
d="M53 0v112h122v420l-116 -34v120l247 82v-588h116v-112h-369z" />
    <glyph glyph-name="two" unicode="2" horiz-adv-x="678" 
d="M189 497h-131c13 165 156 212 290 212c131 0 272 -52 272 -216c0 -178 -134 -219 -281 -219c-58 0 -152 -15 -152 -91v-60h435v-123h-567v184c0 161 146 209 284 209c53 0 150 16 150 97c0 77 -60 102 -141 105c-77 0 -156 -28 -159 -98z" />
    <glyph glyph-name="three" unicode="3" horiz-adv-x="679" 
d="M341 305h-109v108h101c71 0 146 19 147 84c0 40 -32 93 -144 93c-62 0 -146 -22 -146 -86h-132c0 151 150 206 279 206c132 0 274 -64 275 -213c0 -64 -36 -119 -97 -138c67 -22 114 -79 114 -147c0 -171 -161 -222 -296 -222c-133 0 -285 56 -286 215h133
c0 -72 97 -97 154 -97c67 0 156 28 156 103c0 42 -23 94 -149 94z" />
    <glyph glyph-name="four" unicode="4" horiz-adv-x="668" 
d="M341 699h201v-438h82v-128h-82v-133h-130v133h-374l-12 134zM175 261h237v324z" />
    <glyph glyph-name="five" unicode="5" horiz-adv-x="656" 
d="M574 699v-124h-378v-123h136c149 0 282 -61 281 -225c0 -159 -133 -235 -274 -235c-154 0 -286 55 -287 219h131c0 -77 88 -97 154 -97c64 0 145 30 145 113c1 79 -78 102 -150 102h-265v370h507z" />
    <glyph glyph-name="six" unicode="6" horiz-adv-x="694" 
d="M194 481v4v-105c31 48 107 74 162 74c141 0 289 -59 289 -233c0 -155 -149 -232 -290 -232c-143 0 -292 77 -292 234v261c0 156 144 229 288 229c152 0 287 -60 287 -207h-132c0 62 -78 93 -153 93c-79 1 -159 -42 -159 -118zM355 107c83 0 159 37 159 114
s-70 118 -158 118s-163 -40 -162 -118c1 -77 75 -114 161 -114z" />
    <glyph glyph-name="seven" unicode="7" horiz-adv-x="562" 
d="M239 0h-152l286 574h-341v126h514l7 -70z" />
    <glyph glyph-name="eight" unicode="8" horiz-adv-x="704" 
d="M352 309c-82 0 -163 -31 -164 -100c-1 -54 57 -105 164 -105s165 50 164 105c-1 69 -76 100 -164 100zM50 211c1 54 35 121 107 150c-60 32 -88 84 -88 138c0 141 130 213 282 213c151 0 287 -73 287 -213c0 -48 -27 -106 -90 -132c72 -29 105 -102 106 -156
c3 -163 -147 -228 -303 -227c-152 1 -304 63 -301 227zM204 503c2 -61 71 -98 148 -98c81 0 146 37 148 98c2 59 -60 99 -149 99c-99 0 -149 -51 -147 -99z" />
    <glyph glyph-name="nine" unicode="9" horiz-adv-x="695" 
d="M501 221v-4v105c-31 -48 -107 -74 -162 -74c-141 0 -289 59 -289 233c0 155 149 232 290 232c143 0 292 -77 292 -234v-261c0 -156 -144 -229 -288 -229c-152 0 -291 60 -291 207h132c0 -62 82 -93 157 -93c79 -1 159 42 159 118zM340 595c-83 0 -159 -37 -159 -114
s70 -118 158 -118s163 40 162 118c-1 77 -75 114 -161 114z" />
    <glyph glyph-name="_0004" horiz-adv-x="0" 
 />
    <glyph glyph-name="breve" unicode="&#x2d8;" horiz-adv-x="369" 
d="M231 699h98c16 -198 -319 -195 -303 0h99c0 -74 106 -75 106 0z" />
    <glyph glyph-name="dotaccent" unicode="&#x2d9;" horiz-adv-x="198" 
d="M11 640c0 95 144 95 144 0s-144 -95 -144 0z" />
    <glyph glyph-name="ring" unicode="&#x2da;" horiz-adv-x="314" 
d="M15 593c0 80 67 121 133 121c65 0 132 -41 132 -121s-67 -120 -132 -120c-66 0 -133 40 -133 120zM146 645c-77 0 -76 -102 0 -102c79 0 75 102 0 102z" />
    <glyph glyph-name="hungarumlaut" unicode="&#x2dd;" horiz-adv-x="435" 
d="M410 701v-4l-118 -137h-100l89 141h129zM229 702v-4l-115 -137h-102l88 141h129z" />
    <glyph glyph-name="ogonek" unicode="&#x2db;" horiz-adv-x="377" 
d="M245 -144l62 -47c-58 -94 -230 -76 -259 24c-14 48 4 169 188 140l15 -52c-37 10 -129 -6 -112 -61c8 -26 60 -43 106 -4z" />
    <glyph glyph-name="caron" unicode="&#x2c7;" horiz-adv-x="405" 
d="M164 556l-148 138v6h124l59 -61l64 61h120v-6l-152 -138h-67z" />
    <glyph glyph-name="dotlessi" unicode="&#x131;" horiz-adv-x="260" 
d="M194 0h-128v476h128v-476z" />
    <glyph glyph-name="fraction" unicode="&#x2044;" horiz-adv-x="165" 
d="M225 707h106l-388 -711h-105z" />
    <glyph glyph-name="fi" unicode="&#xfb01;" horiz-adv-x="637" 
d="M370 590l38 95c-34 18 -69 27 -104 27c-99 0 -188 -61 -188 -193v-33h-92v-106h92v-380h122v380h144v106h-144v33c0 60 32 88 74 88c20 0 38 -6 58 -17zM572 495h-122v-495h122v495zM439 632c0 95 144 95 144 0s-144 -95 -144 0z" />
    <glyph glyph-name="fl" unicode="&#xfb02;" horiz-adv-x="634" 
d="M401 690l-28 -99c-21 12 -40 16 -61 16c-42 0 -74 -28 -74 -88v-33h135v-107h-135v-379h-122v379h-92v107h92v33c0 132 89 193 188 193c32 0 65 -7 97 -22zM444 699h121v-699h-121v699z" />
    <glyph glyph-name="Lslash" unicode="&#x141;" horiz-adv-x="602" 
d="M225 413l106 52v-101l-106 -51v-191h360v-122h-492v249l-78 -38v99l78 38v352h132v-287z" />
    <glyph glyph-name="lslash" unicode="&#x142;" horiz-adv-x="293" 
d="M276 441v-90l-71 -35v-316h-121v257l-64 -31v91l64 31v351h121v-293z" />
    <glyph glyph-name="Zcaron" unicode="&#x17d;" horiz-adv-x="620" 
d="M51 579v121h529v-62l-363 -513h363v-125h-547v76l355 503h-337zM291 772l-153 136v6h128l61 -60l66 60h123v-6l-156 -136h-69z" />
    <glyph glyph-name="zcaron" unicode="&#x17e;" horiz-adv-x="485" 
d="M48 493h395v-58l-227 -315h229v-120h-415v51l236 331h-218v111zM217 554l-148 138v6h124l59 -61l64 61h120v-6l-152 -138h-67z" />
    <glyph glyph-name="parenleft" unicode="(" horiz-adv-x="354" 
d="M273 734l61 -82c-113 -90 -170 -222 -170 -364c0 -152 57 -272 170 -361l-66 -89c-156 103 -230 281 -230 450c0 167 79 341 235 446z" />
    <glyph glyph-name="parenright" unicode=")" horiz-adv-x="354" 
d="M20 656l61 82c156 -105 235 -279 235 -446c0 -169 -74 -347 -230 -450l-64 91c113 89 168 207 168 359c0 142 -57 274 -170 364z" />
    <glyph glyph-name="asterisk" unicode="*" horiz-adv-x="415" 
d="M343 467l-75 -56l-60 87l-59 -87l-76 56l66 78l-94 19l28 93l92 -35l-5 94h95l-10 -96l98 37l26 -93l-96 -19z" />
    <glyph glyph-name="plus" unicode="+" horiz-adv-x="513" 
d="M48 403h147v149h121v-149h149v-111h-149v-150h-121v150h-147v111z" />
    <glyph glyph-name="hyphen" unicode="-" horiz-adv-x="493" 
d="M62 233v112h369v-112h-369z" />
    <glyph glyph-name="less" unicode="&#x3c;" horiz-adv-x="397" 
d="M185 314l158 -151l-79 -84l-230 228v15l230 228l79 -84z" />
    <glyph glyph-name="equal" unicode="=" horiz-adv-x="566" 
d="M67 143v110h432v-110h-432zM67 369v111h432v-111h-432z" />
    <glyph glyph-name="greater" unicode="&#x3e;" horiz-adv-x="398" 
d="M55 157l158 157l-158 158l79 78l230 -228v-15l-230 -228z" />
    <glyph glyph-name="bracketleft" unicode="[" horiz-adv-x="352" 
d="M317 -179h-241v888h241v-108h-118v-670h118v-110z" />
    <glyph glyph-name="backslash" unicode="\" horiz-adv-x="509" 
d="M23 766h128l333 -848h-127z" />
    <glyph glyph-name="bracketright" unicode="]" horiz-adv-x="352" 
d="M276 -178h-241v110h118v670h-118v108h241v-888z" />
    <glyph glyph-name="asciicircum" unicode="^" horiz-adv-x="643" 
d="M41 333v6l238 363h77l246 -362v-7h-134l-150 230l-151 -230h-126z" />
    <glyph glyph-name="underscore" unicode="_" horiz-adv-x="594" 
d="M61 -110v107h472v-107h-472z" />
    <glyph glyph-name="grave" unicode="`" horiz-adv-x="237" 
d="M-7 694v5h144l74 -136v-6h-108z" />
    <glyph glyph-name="braceleft" unicode="{" horiz-adv-x="356" 
d="M318 -55v-95c-148 -27 -217 38 -217 165v140c0 38 -7 84 -70 84v91c63 0 70 46 70 84v140c0 127 69 192 217 165v-95c-65 17 -89 -6 -89 -76v-134c0 -60 5 -108 -70 -130c75 -21 70 -70 70 -129v-134c0 -70 15 -84 89 -76z" />
    <glyph glyph-name="bar" unicode="|" horiz-adv-x="272" 
d="M195 752v-836h-118v836h118z" />
    <glyph glyph-name="braceright" unicode="}" horiz-adv-x="357" 
d="M38 -153v95c74 -8 89 6 89 76v134c0 59 -5 108 70 129c-75 22 -70 70 -70 130v134c0 70 -24 93 -89 76v95c148 27 217 -38 217 -165v-140c0 -38 7 -84 70 -84v-91c-63 0 -70 -46 -70 -84v-140c0 -127 -69 -192 -217 -165z" />
    <glyph glyph-name="asciitilde" unicode="~" 
d="M467 373l89 -30c-29 -89 -95 -159 -195 -124c-50 17 -102 70 -149 70c-25 0 -52 -15 -70 -57l-82 31c27 95 93 127 156 127c75 0 118 -57 175 -75c36 -11 58 13 76 58z" />
    <glyph glyph-name="quotedblbase" unicode="&#x201e;" horiz-adv-x="443" 
d="M29 -128l48 225h126l-78 -225h-96zM206 -128l48 225h126l-78 -225h-96z" />
    <glyph glyph-name="quotesinglbase" unicode="&#x201a;" horiz-adv-x="266" 
d="M29 -128l48 225h126l-78 -225h-96z" />
    <glyph glyph-name="perthousand" unicode="&#x2030;" horiz-adv-x="1150" 
d="M202 713c217 0 217 -314 0 -314s-217 314 0 314zM549 701h141l-460 -702h-142zM582 307c217 0 217 -314 0 -314s-217 314 0 314zM582 215c-86 0 -86 -131 0 -131s86 131 0 131zM202 622c-86 0 -86 -131 0 -131s86 131 0 131zM954 307c217 0 217 -314 0 -314
s-217 314 0 314zM954 215c-86 0 -86 -131 0 -131s86 131 0 131z" />
    <glyph glyph-name="dagger" unicode="&#x2020;" horiz-adv-x="590" 
d="M362 699v-187h195v-110h-195v-518h-134v518h-195v110h195v187h134z" />
    <glyph glyph-name="daggerdbl" unicode="&#x2021;" horiz-adv-x="630" 
d="M381 699v-185h196v-110h-196v-221h196v-109h-196v-199h-132v199h-196v109h196v221h-196v110h196v185h132z" />
    <glyph glyph-name="circumflex" unicode="&#x2c6;" horiz-adv-x="425" 
d="M22 577l148 138h67l148 -138v-6h-124l-58 59l-57 -59h-124v6z" />
    <glyph glyph-name="Scaron" unicode="&#x160;" horiz-adv-x="664" 
d="M605 585l-105 -54c-24 40 -90 78 -166 78c-98 0 -145 -41 -145 -93c0 -61 72 -78 156 -88c146 -18 282 -56 282 -223c0 -156 -138 -223 -294 -223c-143 0 -253 44 -305 172l110 57c31 -77 112 -111 197 -111c83 0 161 29 161 105c0 66 -69 93 -162 103
c-143 17 -275 55 -275 212c0 144 142 203 271 204c109 0 222 -31 275 -139zM305 782l-148 138v6h124l59 -61l64 61h120v-6l-152 -138h-67z" />
    <glyph glyph-name="guilsinglleft" unicode="&#x2039;" horiz-adv-x="342" 
d="M35 296l139 221h130l-138 -221l138 -222h-130z" />
    <glyph glyph-name="OE" unicode="&#x152;" horiz-adv-x="1030" 
d="M972 132v-131h-457c-35 -10 -73 -16 -115 -16c-242 0 -357 162 -357 369s119 360 357 360c42 0 80 -6 115 -16v2h457v-131h-335v-156h321v-125h-321v-156h335zM401 603c-153 0 -226 -112 -226 -252c0 -127 75 -254 229 -254c43 0 80 6 111 20v464c-32 15 -70 22 -114 22z
" />
    <glyph glyph-name="quoteleft" unicode="&#x2018;" horiz-adv-x="258" 
d="M218 701l-48 -225h-126l78 225h96z" />
    <glyph glyph-name="quoteright" unicode="&#x2019;" horiz-adv-x="252" 
d="M49 475l48 225h126l-78 -225h-96z" />
    <glyph glyph-name="quotedblleft" unicode="&#x201c;" horiz-adv-x="428" 
d="M387 699l-48 -225h-126l78 225h96zM218 699l-48 -225h-126l78 225h96z" />
    <glyph glyph-name="quotedblright" unicode="&#x201d;" horiz-adv-x="421" 
d="M49 475l48 225h126l-78 -225h-96zM218 475l48 225h126l-78 -225h-96z" />
    <glyph glyph-name="bullet" unicode="&#x2022;" horiz-adv-x="412" 
d="M207 149c-74 0 -130 50 -130 126s56 127 130 127c72 0 128 -51 128 -127s-56 -126 -128 -126z" />
    <glyph glyph-name="endash" unicode="&#x2013;" horiz-adv-x="601" 
d="M64 231v108h473v-108h-473z" />
    <glyph glyph-name="emdash" unicode="&#x2014;" horiz-adv-x="691" 
d="M61 233v108h569v-108h-569z" />
    <glyph glyph-name="tilde" unicode="&#x2dc;" horiz-adv-x="397" 
d="M104 643l-76 41c24 59 63 101 129 86c47 -11 93 -63 124 -1l80 -38c-29 -77 -79 -100 -126 -88c-49 14 -92 73 -131 0z" />
    <glyph glyph-name="trademark" unicode="&#x2122;" horiz-adv-x="815" 
d="M254 621v-212h-95v212h-95v80h286v-80h-96zM482 702l79 -97l79 97h100v-293h-97v87l7 85l-80 -107h-20l-78 107l7 -85v-87h-97v293h100z" />
    <glyph glyph-name="scaron" unicode="&#x161;" horiz-adv-x="497" 
d="M444 442l-68 -80c-35 33 -75 44 -122 44c-58 0 -90 -18 -90 -49c0 -32 29 -50 92 -54c93 -6 211 -27 211 -158c0 -87 -71 -162 -212 -162c-78 0 -156 13 -228 88l60 87c47 -49 115 -68 170 -69c46 -1 89 18 89 54c0 34 -28 53 -98 57c-93 7 -204 41 -204 153
c0 114 118 154 208 154c77 0 135 -15 192 -65zM220 562l-142 132v6h119l57 -59l61 59h115v-6l-145 -132h-65z" />
    <glyph glyph-name="guilsinglright" unicode="&#x203a;" horiz-adv-x="342" 
d="M169 520l139 -221l-139 -222h-130l138 222l-138 221h130z" />
    <glyph glyph-name="currency" unicode="&#xa4;" horiz-adv-x="621" 
d="M213 128l-58 -59l-92 91l58 57c-33 66 -29 134 4 196l-62 59l92 92l58 -59c61 26 135 25 194 -1l60 60l91 -92l-58 -58c31 -64 32 -136 1 -197l57 -57l-90 -90l-59 58c-63 -27 -135 -24 -196 0zM310 208c68 0 105 53 105 108s-37 108 -105 108c-65 0 -106 -53 -106 -108
s41 -108 106 -108z" />
    <glyph glyph-name="yen" unicode="&#xa5;" horiz-adv-x="738" 
d="M144 117v95h155v51h-155v97h108l-222 334v6h157l178 -289l186 289h159v-6l-230 -334h105v-97h-154v-51h154v-95h-154v-117h-132v117h-155z" />
    <glyph glyph-name="brokenbar" unicode="&#xa6;" horiz-adv-x="279" 
d="M202 341h-125v369h125v-369zM77 278h125v-369h-125v369z" />
    <glyph glyph-name="section" unicode="&#xa7;" horiz-adv-x="618" 
d="M53 78l79 83c49 -53 107 -72 174 -71c65 0 126 24 128 56c2 28 -51 45 -124 44c-120 -2 -258 39 -252 154c2 35 31 82 89 100c-63 13 -84 68 -82 107c7 128 160 160 262 160c72 0 171 -18 223 -78l-81 -68c-42 30 -85 40 -146 41c-65 1 -126 -19 -128 -52
c-2 -38 69 -50 120 -50c113 0 261 -22 250 -154c-4 -39 -38 -84 -86 -98c61 -18 87 -72 85 -107c-6 -126 -170 -164 -262 -164c-98 0 -193 30 -249 97zM438 347c5 83 -249 83 -253 1c-5 -78 249 -74 253 -1z" />
    <glyph glyph-name="ordfeminine" unicode="&#xaa;" horiz-adv-x="437" 
d="M299 656l2 44h91v-323h-90l-3 47c-19 -38 -69 -56 -105 -57c-96 0 -167 59 -167 172c0 112 74 170 169 169c43 0 84 -20 103 -52zM205 623c-45 0 -82 -31 -82 -84s37 -84 82 -84c108 0 108 168 0 168zM39 233v87h355v-87h-355z" />
    <glyph glyph-name="dieresis" unicode="&#xa8;" horiz-adv-x="511" 
d="M49 655c0 93 140 93 140 0c0 -92 -140 -92 -140 0zM298 655c0 93 140 93 140 0c0 -92 -140 -92 -140 0z" />
    <glyph glyph-name="guillemotleft" unicode="&#xab;" horiz-adv-x="519" 
d="M35 297l139 221h130l-138 -221l138 -222h-130zM211 297l139 221h130l-138 -221l138 -222h-130z" />
    <glyph glyph-name="logicalnot" unicode="&#xac;" horiz-adv-x="535" 
d="M462 382v-231h-105v127h-290v104h395z" />
    <glyph glyph-name="minus" unicode="&#x2212;" horiz-adv-x="525" 
d="M67 236v113h391v-113h-391z" />
    <glyph glyph-name="degree" unicode="&#xb0;" horiz-adv-x="357" 
d="M44 595c0 84 68 127 135 127s134 -43 134 -127c0 -85 -68 -127 -135 -127s-134 42 -134 127zM179 650c-78 0 -79 -111 -1 -111s77 111 1 111z" />
    <glyph glyph-name="plusminus" unicode="&#xb1;" horiz-adv-x="537" 
d="M64 320v114h143v148h122v-148h144v-114h-144v-148h-122v148h-143zM64 19v111h409v-111h-409z" />
    <glyph glyph-name="twosuperior" unicode="&#xb2;" horiz-adv-x="371" 
d="M127 657h-88c1 78 74 114 142 114c89 0 153 -35 153 -119c0 -154 -208 -86 -208 -160v-11h203v-85h-292v96c0 147 208 82 208 160c0 31 -26 42 -62 42c-29 0 -55 -12 -56 -37z" />
    <glyph glyph-name="threesuperior" unicode="&#xb3;" horiz-adv-x="378" 
d="M187 551h-57v67h53c38 0 61 5 62 39c0 11 -10 39 -61 39c-32 0 -59 -5 -67 -36h-78c0 79 78 111 146 111c70 0 148 -36 149 -114c0 -29 -16 -63 -48 -73c36 -11 57 -45 57 -76c0 -90 -89 -120 -160 -120c-70 0 -150 32 -151 115h92c8 -26 33 -35 62 -35c31 0 64 11 64 38
c0 23 -14 45 -63 45z" />
    <glyph glyph-name="acute" unicode="&#xb4;" horiz-adv-x="239" 
d="M214 699v-5l-110 -137h-108v6l74 136h144z" />
    <glyph glyph-name="mu" unicode="&#xb5;" horiz-adv-x="620" 
d="M566 0h-119l-12 51c-24 -50 -80 -73 -118 -73c-39 0 -90 6 -117 71v-265h-126v692h129v-261c0 -80 59 -124 118 -124c58 0 114 42 114 136v249h131v-476z" />
    <glyph glyph-name="mu" unicode="&#x3bc;" horiz-adv-x="620" 
d="M566 0h-119l-12 51c-24 -50 -80 -73 -118 -73c-39 0 -90 6 -117 71v-265h-126v692h129v-261c0 -80 59 -124 118 -124c58 0 114 42 114 136v249h131v-476z" />
    <glyph glyph-name="paragraph" unicode="&#xb6;" horiz-adv-x="851" 
d="M402 576v-789h-132v387c-158 16 -238 140 -238 262c0 132 92 264 273 264h507v-124h-93v-789h-132v789h-185z" />
    <glyph glyph-name="periodcentered" unicode="&#xb7;" horiz-adv-x="270" 
d="M59 274c0 100 152 100 152 0s-152 -100 -152 0z" />
    <glyph glyph-name="cedilla" unicode="&#xb8;" horiz-adv-x="382" 
d="M33 -169l53 45c29 -39 107 -44 119 -4c11 38 -47 62 -85 35l-29 23l32 94h88l-16 -51c92 -3 112 -65 103 -115c-25 -116 -204 -126 -265 -27z" />
    <glyph glyph-name="onesuperior" unicode="&#xb9;" horiz-adv-x="275" 
d="M36 396v77h62v192l-53 -12v75l141 36v-291h64v-77h-214z" />
    <glyph glyph-name="ordmasculine" unicode="&#xba;" horiz-adv-x="412" 
d="M40 228v87h332v-87h-332zM206 367c-101 0 -178 59 -178 172c0 112 76 169 178 169s178 -57 178 -169c0 -113 -77 -172 -178 -172zM206 455c45 0 82 31 82 84s-37 84 -82 84s-82 -31 -82 -84s37 -84 82 -84z" />
    <glyph glyph-name="guillemotright" unicode="&#xbb;" horiz-adv-x="518" 
d="M345 520l139 -221l-139 -222h-130l138 222l-138 221h130zM169 520l139 -221l-139 -222h-130l138 222l-138 221h130z" />
    <glyph glyph-name="Aacute" unicode="&#xc1;" horiz-adv-x="778" 
d="M572 132l59 -132h144l-314 700h-144l-314 -700h143l60 132h366zM389 553l130 -298h-260zM552 914v-5l-110 -137h-108v6l74 136h144z" />
    <glyph glyph-name="Acircumflex" unicode="&#xc2;" horiz-adv-x="778" 
d="M631 0l-59 132h-366l-60 -132h-143l314 700h144l314 -700h-144zM519 255l-130 298l-130 -298h260zM211 759l148 138h67l148 -138v-6h-124l-58 59l-57 -59h-124v6z" />
    <glyph glyph-name="Atilde" unicode="&#xc3;" horiz-adv-x="778" 
d="M631 0l-59 132h-366l-60 -132h-143l314 700h144l314 -700h-144zM519 255l-130 298l-130 -298h260zM285 763l-77 42c24 60 64 103 132 88c48 -11 95 -65 127 -1l82 -39c-30 -79 -81 -103 -129 -90c-51 14 -95 75 -135 0z" />
    <glyph glyph-name="Aring" unicode="&#xc5;" horiz-adv-x="779" 
d="M257 798c0 80 67 121 133 121c65 0 132 -41 132 -121c0 -49 -25 -83 -59 -102l313 -696h-144l-59 132h-366l-60 -132h-143l312 696c-35 19 -59 53 -59 102zM260 255h260l-130 298zM388 850c-77 0 -76 -102 0 -102c79 0 75 102 0 102z" />
    <glyph glyph-name="Egrave" unicode="&#xc8;" horiz-adv-x="665" 
d="M607 130v-130h-524v700h524v-128h-393v-161h379v-123h-379v-158h393zM204 914v5h144l74 -136v-6h-108z" />
    <glyph glyph-name="Eacute" unicode="&#xc9;" horiz-adv-x="665" 
d="M607 0v130h-393v158h379v123h-379v161h393v128h-524v-700h524zM510 913v-5l-110 -137h-108v6l74 136h144z" />
    <glyph glyph-name="Ecircumflex" unicode="&#xca;" horiz-adv-x="665" 
d="M607 130v-130h-524v700h524v-128h-393v-161h379v-123h-379v-158h393zM188 777l148 138h67l148 -138v-6h-124l-58 59l-57 -59h-124v6z" />
    <glyph glyph-name="Ntilde" unicode="&#xd1;" horiz-adv-x="777" 
d="M190 700l372 -471v471h132v-700h-107l-372 466v-466h-132v700h107zM304 770l-76 41c24 59 63 101 129 86c47 -11 93 -63 124 -1l80 -38c-29 -77 -79 -100 -126 -88c-49 14 -92 73 -131 0z" />
    <glyph glyph-name="Ograve" unicode="&#xd2;" horiz-adv-x="802" 
d="M405 714c239 -2 358 -186 356 -368c-2 -181 -113 -362 -359 -362s-360 177 -360 361c0 221 160 369 363 369zM172 343c3 -115 65 -238 230 -238s227 124 229 239c2 117 -65 247 -226 250c-149 0 -237 -112 -233 -251zM256 917v5h144l74 -136v-6h-108z" />
    <glyph glyph-name="Oacute" unicode="&#xd3;" horiz-adv-x="802" 
d="M405 714c-203 0 -363 -148 -363 -369c0 -184 114 -361 360 -361s357 181 359 362c2 182 -117 366 -356 368zM172 343c-4 139 84 251 233 251c161 -3 228 -133 226 -250c-2 -115 -64 -239 -229 -239s-227 123 -230 238zM563 917v-5l-110 -137h-108v6l74 136h144z" />
    <glyph glyph-name="Ocircumflex" unicode="&#xd4;" horiz-adv-x="802" 
d="M405 714c239 -2 358 -186 356 -368c-2 -181 -113 -362 -359 -362s-360 177 -360 361c0 221 160 369 363 369zM172 343c3 -115 65 -238 230 -238s227 124 229 239c2 117 -65 247 -226 250c-149 0 -237 -112 -233 -251zM232 782l148 138h67l148 -138v-6h-124l-58 59
l-57 -59h-124v6z" />
    <glyph glyph-name="Otilde" unicode="&#xd5;" horiz-adv-x="802" 
d="M405 714c239 -2 358 -186 356 -368c-2 -181 -113 -362 -359 -362s-360 177 -360 361c0 221 160 369 363 369zM172 343c3 -115 65 -238 230 -238s227 124 229 239c2 117 -65 247 -226 250c-149 0 -237 -112 -233 -251zM320 775l-76 41c24 59 63 101 129 86
c47 -11 93 -63 124 -1l80 -38c-29 -77 -79 -100 -126 -88c-49 14 -92 73 -131 0z" />
    <glyph glyph-name="Odieresis" unicode="&#xd6;" horiz-adv-x="802" 
d="M216 838c0 93 140 93 140 0c0 -92 -140 -92 -140 0zM462 838c0 93 140 93 140 0c0 -92 -140 -92 -140 0zM405 714c-203 0 -363 -148 -363 -369c0 -184 114 -361 360 -361s357 181 359 362c2 182 -117 366 -356 368zM172 343c-4 139 84 251 233 251
c161 -3 228 -133 226 -250c-2 -115 -64 -239 -229 -239s-227 123 -230 238z" />
    <glyph glyph-name="multiply" unicode="&#xd7;" horiz-adv-x="460" 
d="M137 491l93 -97l97 99l76 -76l-100 -103l103 -102l-76 -73l-101 102l-96 -99l-79 79l98 96l-96 96z" />
    <glyph glyph-name="Ugrave" unicode="&#xd9;" horiz-adv-x="762" 
d="M557 699h131v-401c0 -207 -127 -313 -303 -313c-168 0 -311 102 -311 313v401h131v-401c0 -126 72 -193 181 -193s171 73 171 193v401zM242 917v5h144l74 -136v-6h-108z" />
    <glyph glyph-name="Uacute" unicode="&#xda;" horiz-adv-x="762" 
d="M688 699h-131v-401c0 -120 -62 -193 -171 -193s-181 67 -181 193v401h-131v-401c0 -211 143 -313 311 -313c176 0 303 106 303 313v401zM540 921v-5l-110 -137h-108v6l74 136h144z" />
    <glyph glyph-name="Ucircumflex" unicode="&#xdb;" horiz-adv-x="762" 
d="M557 699h131v-401c0 -207 -127 -313 -303 -313c-168 0 -311 102 -311 313v401h131v-401c0 -126 72 -193 181 -193s171 73 171 193v401zM203 783l148 138h67l148 -138v-6h-124l-58 59l-57 -59h-124v6z" />
    <glyph glyph-name="Udieresis" unicode="&#xdc;" horiz-adv-x="762" 
d="M688 699h-131v-401c0 -120 -62 -193 -171 -193s-181 67 -181 193v401h-131v-401c0 -211 143 -313 311 -313c176 0 303 106 303 313v401zM197 835c0 93 140 93 140 0c0 -92 -140 -92 -140 0zM446 835c0 93 140 93 140 0c0 -92 -140 -92 -140 0z" />
    <glyph glyph-name="Yacute" unicode="&#xdd;" horiz-adv-x="695" 
d="M346 411l-178 289h-157v-6l269 -405v-289h132v289l279 405v6h-159zM502 913v-5l-110 -137h-108v6l74 136h144z" />
    <glyph glyph-name="agrave" unicode="&#xe0;" horiz-adv-x="638" 
d="M451 425l4 68h117v-493h-115l-6 72c-28 -58 -105 -86 -160 -87c-146 -1 -254 89 -254 262c0 170 113 259 257 258c66 0 129 -31 157 -80zM305 396c-81 0 -146 -55 -146 -149s65 -150 146 -150c192 0 192 299 0 299zM164 704v5h144l74 -136v-6h-108z" />
    <glyph glyph-name="aacute" unicode="&#xe1;" horiz-adv-x="638" 
d="M451 425c-28 49 -91 80 -157 80c-144 1 -257 -88 -257 -258c0 -173 108 -263 254 -262c55 1 132 29 160 87l6 -72h115v493h-117zM305 396c192 0 192 -299 0 -299c-81 0 -146 56 -146 150s65 149 146 149zM444 710v-5l-110 -137h-108v6l74 136h144z" />
    <glyph glyph-name="acircumflex" unicode="&#xe2;" horiz-adv-x="638" 
d="M451 425l4 68h117v-493h-115l-6 72c-28 -58 -105 -86 -160 -87c-146 -1 -254 89 -254 262c0 170 113 259 257 258c66 0 129 -31 157 -80zM305 396c-81 0 -146 -55 -146 -149s65 -150 146 -150c192 0 192 299 0 299zM143 575l148 138h67l148 -138v-6h-124l-58 59l-57 -59
h-124v6z" />
    <glyph glyph-name="atilde" unicode="&#xe3;" horiz-adv-x="638" 
d="M451 425l4 68h117v-493h-115l-6 72c-28 -58 -105 -86 -160 -87c-146 -1 -254 89 -254 262c0 170 113 259 257 258c66 0 129 -31 157 -80zM305 396c-81 0 -146 -55 -146 -149s65 -150 146 -150c192 0 192 299 0 299zM234 585l-76 41c24 59 63 101 129 86
c47 -11 93 -63 124 -1l80 -38c-29 -77 -79 -100 -126 -88c-49 14 -92 73 -131 0z" />
    <glyph glyph-name="adieresis" unicode="&#xe4;" horiz-adv-x="638" 
d="M451 425c-28 49 -91 80 -157 80c-144 1 -257 -88 -257 -258c0 -173 108 -263 254 -262c55 1 132 29 160 87l6 -72h115v493h-117zM305 396c192 0 192 -299 0 -299c-81 0 -146 56 -146 150s65 149 146 149zM134 655c0 93 140 93 140 0c0 -92 -140 -92 -140 0zM383 655
c0 93 140 93 140 0c0 -92 -140 -92 -140 0z" />
    <glyph glyph-name="aring" unicode="&#xe5;" horiz-adv-x="638" 
d="M451 425l4 68h117v-493h-115l-6 72c-28 -58 -105 -86 -160 -87c-146 -1 -254 89 -254 262c0 170 113 259 257 258c66 0 129 -31 157 -80zM305 396c-81 0 -146 -55 -146 -149s65 -150 146 -150c192 0 192 299 0 299zM185 675c0 77 65 116 128 116s127 -39 127 -116
s-64 -116 -127 -116s-128 39 -128 116zM311 725c-74 0 -73 -98 0 -98c77 0 73 98 0 98z" />
    <glyph glyph-name="divide" unicode="&#xf7;" horiz-adv-x="551" 
d="M52 384v-118h447v118h-447zM206 137c0 93 140 93 140 0c0 -92 -140 -92 -140 0zM206 509c0 93 140 93 140 0c0 -92 -140 -92 -140 0z" />
    <glyph glyph-name="egrave" unicode="&#xe8;" horiz-adv-x="581" 
d="M548 203h-385c8 -61 61 -105 147 -105c45 0 104 17 132 46l78 -77c-52 -54 -137 -80 -212 -80c-170 0 -271 105 -271 263c0 150 102 258 262 258c165 0 268 -102 249 -305zM165 304h266c-8 64 -58 96 -128 96c-66 0 -120 -32 -138 -96zM152 708v5h144l74 -136v-6h-108z
" />
    <glyph glyph-name="eacute" unicode="&#xe9;" horiz-adv-x="581" 
d="M548 203c19 203 -84 305 -249 305c-160 0 -262 -108 -262 -258c0 -158 101 -263 271 -263c75 0 160 26 212 80l-78 77c-28 -29 -87 -46 -132 -46c-86 0 -139 44 -147 105h385zM165 304c18 64 72 96 138 96c70 0 120 -32 128 -96h-266zM443 715v-5l-110 -137h-108v6
l74 136h144z" />
    <glyph glyph-name="ecircumflex" unicode="&#xea;" horiz-adv-x="581" 
d="M548 203h-385c8 -61 61 -105 147 -105c45 0 104 17 132 46l78 -77c-52 -54 -137 -80 -212 -80c-170 0 -271 105 -271 263c0 150 102 258 262 258c165 0 268 -102 249 -305zM165 304h266c-8 64 -58 96 -128 96c-66 0 -120 -32 -138 -96zM124 575l148 138h67l148 -138v-6
h-124l-58 59l-57 -59h-124v6z" />
    <glyph glyph-name="edieresis" unicode="&#xeb;" horiz-adv-x="581" 
d="M131 641c0 93 140 93 140 0c0 -92 -140 -92 -140 0zM344 641c0 93 140 93 140 0c0 -92 -140 -92 -140 0zM548 203c19 203 -84 305 -249 305c-160 0 -262 -108 -262 -258c0 -158 101 -263 271 -263c75 0 160 26 212 80l-78 77c-28 -29 -87 -46 -132 -46
c-86 0 -139 44 -147 105h385zM165 304c18 64 72 96 138 96c70 0 120 -32 128 -96h-266z" />
    <glyph glyph-name="igrave" unicode="&#xec;" horiz-adv-x="260" 
d="M22 693v5h131l42 -142v-6h-99zM194 0h-128v476h128v-476z" />
    <glyph glyph-name="iacute" unicode="&#xed;" horiz-adv-x="260" 
d="M242 698v-5l-74 -143h-99v6l42 142h131zM66 0h128v476h-128v-476z" />
    <glyph glyph-name="icircumflex" unicode="&#xee;" horiz-adv-x="260" 
d="M194 0h-128v476h128v-476zM-23 558l130 146h58l130 -146v-6h-109l-50 62l-50 -62h-109v6z" />
    <glyph glyph-name="idieresis" unicode="&#xef;" horiz-adv-x="260" 
d="M-24 639c0 93 140 93 140 0c0 -92 -140 -92 -140 0zM161 639c0 93 140 93 140 0c0 -92 -140 -92 -140 0zM66 0h128v476h-128v-476z" />
    <glyph glyph-name="ntilde" unicode="&#xf1;" horiz-adv-x="613" 
d="M554 0h-122v258c0 75 -41 132 -119 132c-75 0 -126 -63 -126 -138v-252h-121v494h109l8 -67c50 49 100 74 162 74c116 0 209 -87 209 -242v-259zM216 588l-76 41c24 59 63 101 129 86c47 -11 93 -63 124 -1l80 -38c-29 -77 -79 -100 -126 -88c-49 14 -92 73 -131 0z" />
    <glyph glyph-name="ograve" unicode="&#xf2;" horiz-adv-x="585" 
d="M291 503c157 0 258 -116 258 -257c0 -142 -97 -257 -257 -257s-256 115 -256 257c0 141 98 257 255 257zM292 392c-88 0 -134 -72 -134 -146c0 -75 45 -145 134 -145s134 70 134 145c0 74 -52 146 -134 146zM148 701v5h144l74 -136v-6h-108z" />
    <glyph glyph-name="oacute" unicode="&#xf3;" horiz-adv-x="585" 
d="M291 503c-157 0 -255 -116 -255 -257c0 -142 96 -257 256 -257s257 115 257 257c0 141 -101 257 -258 257zM292 392c82 0 134 -72 134 -146c0 -75 -45 -145 -134 -145s-134 70 -134 145c0 74 46 146 134 146zM449 704v-5l-110 -137h-108v6l74 136h144z" />
    <glyph glyph-name="ocircumflex" unicode="&#xf4;" horiz-adv-x="585" 
d="M291 503c157 0 258 -116 258 -257c0 -142 -97 -257 -257 -257s-256 115 -256 257c0 141 98 257 255 257zM292 392c-88 0 -134 -72 -134 -146c0 -75 45 -145 134 -145s134 70 134 145c0 74 -52 146 -134 146zM110 565l148 138h67l148 -138v-6h-124l-58 59l-57 -59h-124v6z
" />
    <glyph glyph-name="otilde" unicode="&#xf5;" horiz-adv-x="585" 
d="M291 503c157 0 258 -116 258 -257c0 -142 -97 -257 -257 -257s-256 115 -256 257c0 141 98 257 255 257zM292 392c-88 0 -134 -72 -134 -146c0 -75 45 -145 134 -145s134 70 134 145c0 74 -52 146 -134 146zM204 581l-76 41c24 59 63 101 129 86c47 -11 93 -63 124 -1
l80 -38c-29 -77 -79 -100 -126 -88c-49 14 -92 73 -131 0z" />
    <glyph glyph-name="odieresis" unicode="&#xf6;" horiz-adv-x="585" 
d="M119 648c0 93 140 93 140 0c0 -92 -140 -92 -140 0zM325 648c0 93 140 93 140 0c0 -92 -140 -92 -140 0zM291 503c-157 0 -255 -116 -255 -257c0 -142 96 -257 256 -257s257 115 257 257c0 141 -101 257 -258 257zM292 392c82 0 134 -72 134 -146
c0 -75 -45 -145 -134 -145s-134 70 -134 145c0 74 46 146 134 146z" />
    <glyph glyph-name="ugrave" unicode="&#xf9;" 
d="M58 493h122v-258c0 -75 41 -132 119 -132c75 0 126 63 126 138v252h121v-494h-109l-8 67c-51 -50 -98 -74 -167 -74c-118 0 -204 89 -204 242v259zM155 695v5h144l74 -136v-6h-108z" />
    <glyph glyph-name="uacute" unicode="&#xfa;" 
d="M180 493h-122v-259c0 -153 86 -242 204 -242c69 0 116 24 167 74l8 -67h109v494h-121v-252c0 -75 -51 -138 -126 -138c-78 0 -119 57 -119 132v258zM459 700v-5l-110 -137h-108v6l74 136h144z" />
    <glyph glyph-name="ucircumflex" unicode="&#xfb;" 
d="M58 493h122v-258c0 -75 41 -132 119 -132c75 0 126 63 126 138v252h121v-494h-109l-8 67c-51 -50 -98 -74 -167 -74c-118 0 -204 89 -204 242v259zM130 566l148 138h67l148 -138v-6h-124l-58 59l-57 -59h-124v6z" />
    <glyph glyph-name="udieresis" unicode="&#xfc;" 
d="M180 493h-122v-259c0 -153 86 -242 204 -242c69 0 116 24 167 74l8 -67h109v494h-121v-252c0 -75 -51 -138 -126 -138c-78 0 -119 57 -119 132v258zM112 645c0 93 140 93 140 0c0 -92 -140 -92 -140 0zM361 645c0 93 140 93 140 0c0 -92 -140 -92 -140 0z" />
    <glyph glyph-name="yacute" unicode="&#xfd;" horiz-adv-x="565" 
d="M556 493h-135l-90 -216l-51 -136l-47 139l-75 213h-142l197 -485l-101 -234h134zM425 701v-5l-110 -137h-108v6l74 136h144z" />
    <glyph glyph-name="ydieresis" unicode="&#xff;" horiz-adv-x="565" 
d="M556 493h-135l-90 -216l-51 -136l-47 139l-75 213h-142l197 -485l-101 -234h134zM103 637c0 93 140 93 140 0c0 -92 -140 -92 -140 0zM352 637c0 93 140 93 140 0c0 -92 -140 -92 -140 0z" />
    <glyph glyph-name="Igrave" unicode="&#xcc;" horiz-adv-x="297" 
d="M214 0h-131v700h131v-700zM-12 901v5h144l74 -136v-6h-108z" />
    <glyph glyph-name="Iacute" unicode="&#xcd;" horiz-adv-x="297" 
d="M83 0h131v700h-131v-700zM308 906v-5l-110 -137h-108v6l74 136h144z" />
    <glyph glyph-name="Icircumflex" unicode="&#xce;" horiz-adv-x="297" 
d="M214 0h-131v700h131v-700zM-31 764l148 138h67l148 -138v-6h-124l-58 59l-57 -59h-124v6z" />
    <glyph glyph-name="Idieresis" unicode="&#xcf;" horiz-adv-x="297" 
d="M-32 828c0 93 140 93 140 0c0 -92 -140 -92 -140 0zM182 828c0 93 140 93 140 0c0 -92 -140 -92 -140 0zM83 0h131v700h-131v-700z" />
    <glyph glyph-name="Agrave" unicode="&#xc0;" horiz-adv-x="778" 
d="M631 0l-59 132h-366l-60 -132h-143l314 700h144l314 -700h-144zM519 255l-130 298l-130 -298h260zM220 909v5h144l74 -136v-6h-108z" />
    <glyph glyph-name="Adieresis" unicode="&#xc4;" horiz-adv-x="778" 
d="M572 132l59 -132h144l-314 700h-144l-314 -700h143l60 132h366zM389 553l130 -298h-260zM193 824c0 93 140 93 140 0c0 -92 -140 -92 -140 0zM442 824c0 93 140 93 140 0c0 -92 -140 -92 -140 0z" />
    <glyph glyph-name="AE" unicode="&#xc6;" horiz-adv-x="911" 
d="M855 127v-127h-419v141h-220l-89 -141h-151l444 700h432v-124h-292v-166h281v-122h-281v-161h295zM290 258h146v125l10 154z" />
    <glyph glyph-name="Eth" unicode="&#xd0;" horiz-adv-x="755" 
d="M20 293v112h70v295h259c236 0 363 -152 363 -336c0 -193 -114 -364 -363 -364h-259v293h-70zM217 293v-172h132c159 0 233 99 233 239s-81 221 -233 221h-132v-176h135v-112h-135z" />
    <glyph glyph-name="germandbls" unicode="&#xdf;" horiz-adv-x="626" 
d="M255 2l-1 111c145 -37 207 26 207 97c0 80 -82 123 -158 123h-47v116h44c48 0 110 15 112 66c3 61 -56 83 -106 83c-62 0 -108 -30 -110 -83v-235c0 -79 1 -204 1 -280h-131v514c0 131 124 197 238 197c122 0 237 -64 237 -196c0 -55 -38 -108 -106 -123
c117 -27 156 -115 156 -178c0 -186 -157 -255 -336 -212z" />
    <glyph glyph-name="slash" unicode="/" horiz-adv-x="509" 
d="M358 766h128l-334 -848h-127z" />
    <glyph glyph-name="Thorn" unicode="&#xde;" horiz-adv-x="696" 
d="M83 0l1 699h130v-114h199c342 0 343 -469 0 -469h-198v-116h-132zM215 464v-230h198c169 0 168 230 0 230h-198z" />
    <glyph glyph-name="ellipsis" unicode="&#x2026;" horiz-adv-x="708" 
d="M54 63c0 95 144 95 144 0s-144 -95 -144 0zM282 63c0 95 144 95 144 0s-144 -95 -144 0zM510 63c0 95 144 95 144 0s-144 -95 -144 0z" />
    <glyph glyph-name="oe" unicode="&#x153;" horiz-adv-x="954" 
d="M921 203h-382c8 -61 58 -105 144 -105c45 0 104 17 132 46l78 -77c-52 -54 -137 -80 -212 -80c-92 0 -164 35 -203 101c-44 -64 -103 -99 -186 -99c-160 0 -256 115 -256 257c0 141 98 258 255 258c81 0 155 -36 193 -99c30 58 101 101 188 101c165 0 268 -100 249 -303z
M292 392c-88 0 -134 -72 -134 -146c0 -75 45 -145 134 -145s134 70 134 145c0 74 -52 146 -134 146zM538 304h266c-8 64 -58 96 -128 96c-66 0 -120 -32 -138 -96z" />
    <glyph glyph-name="Ydieresis" unicode="&#x178;" horiz-adv-x="695" 
d="M346 411l-178 289h-157v-6l269 -405v-289h132v289l279 405v6h-159zM164 841c0 88 133 88 133 0c0 -87 -133 -87 -133 0zM400 841c0 88 132 88 132 0c0 -87 -132 -87 -132 0z" />
    <glyph glyph-name="onequarter" unicode="&#xbc;" horiz-adv-x="785" 
d="M591 367h115v-225h44v-77h-44v-65h-88v65h-192l-4 75zM618 142v140l-105 -140h105zM241 -1h-105l386 708h106zM46 334v77h62v192l-53 -12v75l141 36v-291h64v-77h-214z" />
    <glyph glyph-name="onehalf" unicode="&#xbd;" horiz-adv-x="816" 
d="M572 257h-88c1 78 74 114 142 114c89 0 153 -35 153 -119c0 -151 -205 -83 -205 -160v-13h198v-83h-290v96c0 147 208 82 208 160c0 31 -26 42 -62 42c-29 0 -55 -12 -56 -37zM239 -2h-105l386 709h106zM44 334v77h62v192l-53 -12v75l141 36v-291h64v-77h-214z" />
    <glyph glyph-name="threequarters" unicode="&#xbe;" horiz-adv-x="818" 
d="M627 367h115v-225h42v-77h-42v-65h-88v65h-192l-4 75zM654 142v140l-105 -140h105zM186 501h-55v65h51c37 0 59 4 60 37c0 11 -10 38 -59 38c-31 0 -57 -5 -64 -35h-76c0 76 76 107 141 107c68 0 143 -35 144 -110c0 -28 -16 -61 -47 -70c35 -11 55 -44 55 -73
c0 -87 -85 -116 -154 -116c-67 0 -144 31 -145 111h88c8 -25 32 -34 60 -34c30 0 62 11 62 37c0 22 -14 43 -61 43zM284 -5h-105l388 712h106z" />
    <glyph glyph-name="Ccedilla" unicode="&#xc7;" horiz-adv-x="703" 
d="M256 -203l53 45c29 -39 107 -44 119 -4c11 38 -47 62 -85 35l-29 23l31 93c-211 28 -301 191 -302 356c-1 183 118 369 371 369c95 0 185 -36 257 -107l-88 -85c-46 45 -108 66 -169 66c-169 0 -242 -126 -241 -243c1 -116 68 -237 241 -237c61 0 130 25 176 71l90 -91
c-68 -67 -154 -100 -248 -104l-14 -45c92 -3 112 -65 103 -115c-25 -116 -204 -126 -265 -27z" />
    <glyph glyph-name="Edieresis" unicode="&#xcb;" horiz-adv-x="665" 
d="M607 0v130h-393v158h379v123h-379v161h393v128h-524v-700h524zM162 840c0 93 140 93 140 0c0 -92 -140 -92 -140 0zM411 840c0 93 140 93 140 0c0 -92 -140 -92 -140 0z" />
    <glyph glyph-name="Oslash" unicode="&#xd8;" horiz-adv-x="802" 
d="M402 714c50 0 96 -9 136 -23l45 75h128l-78 -130c86 -71 129 -181 128 -290c-2 -181 -113 -362 -359 -362c-56 0 -104 9 -146 25l-49 -81h-127l82 136c-81 69 -120 173 -120 281c0 184 118 369 360 369zM402 105c165 0 227 124 229 239c1 65 -19 134 -64 183l-247 -411
c24 -7 51 -11 82 -11zM402 594c-165 0 -233 -133 -230 -251c1 -59 19 -121 57 -166l245 407c-22 6 -46 10 -72 10z" />
    <glyph glyph-name="ae" unicode="&#xe6;" horiz-adv-x="985" 
d="M949 203h-385c8 -61 61 -105 147 -105c45 0 104 17 132 46l78 -77c-52 -54 -137 -80 -212 -80c-77 0 -130 28 -162 77l-5 -64h-90l-1 72c-28 -58 -105 -86 -160 -87c-146 -1 -254 89 -254 262c0 170 113 259 257 258c66 0 129 -31 157 -80l4 68h92v-62
c45 59 108 77 171 76c135 -3 270 -119 231 -304zM305 396c-81 0 -146 -55 -146 -149s65 -150 146 -150c200 0 200 299 0 299zM566 304h266c-8 64 -58 96 -128 96c-66 0 -120 -32 -138 -96z" />
    <glyph glyph-name="ccedilla" unicode="&#xe7;" horiz-adv-x="509" 
d="M136 -191l53 44c29 -38 107 -43 119 -4c11 37 -47 60 -85 34l-29 22l31 89c-108 25 -187 108 -187 252c0 175 119 261 262 261c70 0 124 -20 178 -73l-77 -81c-29 26 -65 39 -99 39c-82 0 -142 -60 -142 -146c0 -94 64 -144 140 -144c39 0 78 11 108 41l82 -80
c-55 -54 -111 -76 -180 -78l-12 -38c92 -3 112 -63 103 -112c-25 -112 -204 -122 -265 -26z" />
    <glyph glyph-name="oslash" unicode="&#xf8;" horiz-adv-x="585" 
d="M291 503c32 0 61 -5 88 -14l37 63h115l-66 -112c54 -47 84 -117 84 -194c0 -142 -97 -257 -257 -257c-31 0 -60 5 -86 12l-39 -66h-115l67 114c-54 47 -83 118 -83 197c0 141 98 257 255 257zM292 392c-88 0 -134 -72 -134 -146c0 -33 8 -64 25 -89l137 232
c-9 2 -19 3 -28 3zM292 101c89 0 134 70 134 145c0 30 -9 60 -25 85l-135 -228c8 -2 17 -2 26 -2z" />
    <glyph glyph-name="_157" horiz-adv-x="500" 
 />
    <glyph glyph-name="g.alt" horiz-adv-x="639" 
d="M305 396c-81 0 -146 -55 -146 -149s65 -150 146 -150c192 0 192 299 0 299zM62 -58l120 -1c4 -58 60 -84 134 -84c69 0 135 36 135 134v81c-28 -58 -105 -86 -160 -87c-146 -1 -254 89 -254 262c0 170 113 259 257 258c66 0 129 -31 157 -80l4 68h118v-505
c0 -184 -131 -244 -257 -244c-156 0 -254 67 -254 198z" />
    <glyph glyph-name="gcircumflex.alt" horiz-adv-x="639" 
d="M305 396c-81 0 -146 -55 -146 -149s65 -150 146 -150c192 0 192 299 0 299zM62 -58l120 -1c4 -58 60 -84 134 -84c69 0 135 36 135 134v81c-28 -58 -105 -86 -160 -87c-146 -1 -254 89 -254 262c0 170 113 259 257 258c66 0 129 -31 157 -80l4 68h118v-505
c0 -184 -131 -244 -257 -244c-156 0 -254 67 -254 198zM142 584l148 138h67l148 -138v-6h-124l-58 59l-57 -59h-124v6z" />
    <glyph glyph-name="gbreve.alt" horiz-adv-x="639" 
d="M305 396c-81 0 -146 -55 -146 -149s65 -150 146 -150c192 0 192 299 0 299zM62 -58l120 -1c4 -58 60 -84 134 -84c69 0 135 36 135 134v81c-28 -58 -105 -86 -160 -87c-146 -1 -254 89 -254 262c0 170 113 259 257 258c66 0 129 -31 157 -80l4 68h118v-505
c0 -184 -131 -244 -257 -244c-156 0 -254 67 -254 198zM375 711h97c16 -194 -319 -191 -303 0h98c0 -74 108 -75 108 0z" />
    <glyph glyph-name="gdotaccent.alt" horiz-adv-x="639" 
d="M305 396c192 0 192 -299 0 -299c-81 0 -146 56 -146 150s65 149 146 149zM182 -59l-120 1c0 -131 98 -198 254 -198c126 0 257 60 257 244v505h-118l-4 -68c-28 49 -91 80 -157 80c-144 1 -257 -88 -257 -258c0 -173 108 -263 254 -262c55 1 132 29 160 87v-81
c0 -98 -66 -134 -135 -134c-74 0 -130 26 -134 84zM241 653c0 95 144 95 144 0s-144 -95 -144 0z" />
    <glyph glyph-name="gcommaaccent.alt" horiz-adv-x="639" 
d="M305 396c192 0 192 -299 0 -299c-81 0 -146 56 -146 150s65 149 146 149zM182 -59l-120 1c0 -131 98 -198 254 -198c126 0 257 60 257 244v505h-118l-4 -68c-28 49 -91 80 -157 80c-144 1 -257 -88 -257 -258c0 -173 108 -263 254 -262c55 1 132 29 160 87v-81
c0 -98 -66 -134 -135 -134c-74 0 -130 26 -134 84zM239 641c0 12 -2 -12 44 129h69l-18 -78c28 -5 47 -23 47 -54c0 -92 -142 -88 -142 3z" />
    <glyph glyph-name="Abreve" unicode="&#x102;" horiz-adv-x="778" 
d="M631 0l-59 132h-366l-60 -132h-143l314 700h144l314 -700h-144zM519 255l-130 298l-130 -298h260zM440 915h98c16 -198 -319 -195 -303 0h99c0 -74 106 -75 106 0z" />
    <glyph glyph-name="abreve" unicode="&#x103;" horiz-adv-x="638" 
d="M451 425l4 68h117v-493h-115l-6 72c-28 -58 -105 -86 -160 -87c-146 -1 -254 89 -254 262c0 170 113 259 257 258c66 0 129 -31 157 -80zM305 396c-81 0 -146 -55 -146 -149s65 -150 146 -150c192 0 192 299 0 299zM369 709h98c16 -198 -319 -195 -303 0h99
c0 -74 106 -75 106 0z" />
    <glyph glyph-name="Aogonek" unicode="&#x104;" horiz-adv-x="779" 
d="M519 255l-130 298l-130 -298h260zM728 -68l62 -47c-23 -35 -67 -57 -108 -62c-164 -21 -225 160 -72 223l-38 86h-366l-60 -132h-143l314 700h144l316 -703c-38 6 -74 8 -103 1c-72 -17 -69 -94 1 -89c17 1 35 8 53 23z" />
    <glyph glyph-name="aogonek" unicode="&#x105;" horiz-adv-x="638" 
d="M568 -113l62 -47c-58 -94 -234 -84 -259 24c-8 35 -2 102 90 137l-10 71c-28 -58 -105 -86 -160 -87c-146 -1 -254 89 -254 262c0 170 113 259 257 258c66 0 129 -31 157 -80l4 68h117v-541c-41 7 -127 -6 -110 -61c8 -26 60 -43 106 -4zM305 396
c-81 0 -146 -55 -146 -149s65 -150 146 -150c192 0 192 299 0 299z" />
    <glyph glyph-name="Cacute" unicode="&#x106;" horiz-adv-x="700" 
d="M680 88l-90 91c-46 -46 -115 -71 -176 -71c-173 0 -240 121 -241 237c-1 117 72 243 241 243c61 0 123 -21 169 -66l88 85c-72 71 -162 107 -257 107c-253 0 -372 -186 -371 -369c1 -182 111 -361 371 -361c101 0 194 33 266 104zM554 921v-5l-110 -137h-108v6l74 136
h144z" />
    <glyph glyph-name="cacute" unicode="&#x107;" horiz-adv-x="506" 
d="M489 63l-82 80c-30 -30 -69 -41 -108 -41c-76 0 -140 50 -140 144c0 86 60 146 142 146c34 0 70 -13 99 -39l77 81c-54 53 -108 73 -178 73c-143 0 -262 -86 -262 -261s119 -261 262 -261c73 0 133 22 190 78zM407 699v-4l-98 -123h-97v6l67 121h128z" />
    <glyph glyph-name="Ccircumflex" unicode="&#x108;" horiz-adv-x="700" 
d="M590 179l90 -91c-72 -71 -165 -104 -266 -104c-260 0 -370 179 -371 361c-1 183 118 369 371 369c95 0 185 -36 257 -107l-88 -85c-46 45 -108 66 -169 66c-169 0 -242 -126 -241 -243c1 -116 68 -237 241 -237c61 0 130 25 176 71zM215 784l148 138h67l148 -138v-6h-124
l-58 59l-57 -59h-124v6z" />
    <glyph glyph-name="ccircumflex" unicode="&#x109;" horiz-adv-x="506" 
d="M407 143l82 -80c-57 -56 -117 -78 -190 -78c-143 0 -262 86 -262 261s119 261 262 261c70 0 124 -20 178 -73l-77 -81c-29 26 -65 39 -99 39c-82 0 -142 -60 -142 -146c0 -94 64 -144 140 -144c39 0 78 11 108 41zM106 581l144 134h65l144 -134v-6h-120l-57 57l-55 -57
h-121v6z" />
    <glyph glyph-name="Cdotaccent" unicode="&#x10a;" horiz-adv-x="700" 
d="M680 88l-90 91c-46 -46 -115 -71 -176 -71c-173 0 -240 121 -241 237c-1 117 72 243 241 243c61 0 123 -21 169 -66l88 85c-72 71 -162 107 -257 107c-253 0 -372 -186 -371 -369c1 -182 111 -361 371 -361c101 0 194 33 266 104zM341 851c0 91 137 91 137 0
s-137 -91 -137 0z" />
    <glyph glyph-name="cdotaccent" unicode="&#x10b;" horiz-adv-x="506" 
d="M489 63l-82 80c-30 -30 -69 -41 -108 -41c-76 0 -140 50 -140 144c0 86 60 146 142 146c34 0 70 -13 99 -39l77 81c-54 53 -108 73 -178 73c-143 0 -262 -86 -262 -261s119 -261 262 -261c73 0 133 22 190 78zM226 646c0 89 137 89 137 0c0 -90 -137 -90 -137 0z" />
    <glyph glyph-name="Ccaron" unicode="&#x10c;" horiz-adv-x="700" 
d="M590 179l90 -91c-72 -71 -165 -104 -266 -104c-260 0 -370 179 -371 361c-1 183 118 369 371 369c95 0 185 -36 257 -107l-88 -85c-46 45 -108 66 -169 66c-169 0 -242 -126 -241 -243c1 -116 68 -237 241 -237c61 0 130 25 176 71zM377 775l-147 130v6h123l59 -58l64 58
h119v-6l-151 -130h-67z" />
    <glyph glyph-name="ccaron" unicode="&#x10d;" horiz-adv-x="506" 
d="M407 143l82 -80c-57 -56 -117 -78 -190 -78c-143 0 -262 86 -262 261s119 261 262 261c70 0 124 -20 178 -73l-77 -81c-29 26 -65 39 -99 39c-82 0 -142 -60 -142 -146c0 -94 64 -144 140 -144c39 0 78 11 108 41zM254 569l-136 125v6h114l55 -56l59 56h111v-6l-141 -125
h-62z" />
    <glyph glyph-name="Dcaron" unicode="&#x10e;" horiz-adv-x="751" 
d="M358 700c240 0 347 -171 350 -344c3 -177 -105 -356 -350 -356h-275v700h275zM214 575v-448h144c159 0 222 116 219 230c-3 109 -67 218 -219 218h-144zM293 769l-142 132v6h119l57 -59l61 59h115v-6l-145 -132h-65z" />
    <glyph glyph-name="dcaron" unicode="&#x10f;" horiz-adv-x="638" 
d="M299 391c-78 0 -140 -55 -140 -144c0 -86 62 -145 140 -145c77 0 143 56 143 145c0 86 -66 144 -143 144zM450 699h122v-699h-114l-8 68c-38 -59 -99 -79 -159 -79c-145 0 -254 96 -254 258c0 170 107 258 251 258c52 0 133 -28 162 -79v273zM653 698l-46 -202h91l74 202
h-119z" />
    <glyph glyph-name="Dcroat" unicode="&#x110;" horiz-adv-x="757" 
d="M26 299v108h63v293h275c240 0 347 -171 350 -344c3 -177 -105 -356 -350 -356h-275v299h-63zM220 299v-172h144c159 0 222 116 219 230c-3 109 -67 218 -219 218h-144v-168h110v-108h-110z" />
    <glyph glyph-name="dcroat" unicode="&#x111;" horiz-adv-x="638" 
d="M450 699h122v-59h58v-85h-58v-555h-114l-8 68c-38 -59 -99 -79 -159 -79c-145 0 -254 96 -254 258c0 170 107 258 251 258c52 0 133 -28 162 -79v129h-101v85h101v59zM299 391c-78 0 -140 -55 -140 -144c0 -86 62 -145 140 -145c77 0 143 56 143 145
c0 86 -66 144 -143 144z" />
    <glyph glyph-name="Ebreve" unicode="&#x114;" horiz-adv-x="665" 
d="M607 130v-130h-524v700h524v-128h-393v-161h379v-123h-379v-158h393zM405 907h100c16 -187 -325 -184 -309 0h101c0 -70 108 -71 108 0z" />
    <glyph glyph-name="ebreve" unicode="&#x115;" horiz-adv-x="581" 
d="M548 203h-385c8 -61 61 -105 147 -105c45 0 104 17 132 46l78 -77c-52 -54 -137 -80 -212 -80c-170 0 -271 105 -271 263c0 150 102 258 262 258c165 0 268 -102 249 -305zM165 304h266c-8 64 -58 96 -128 96c-66 0 -120 -32 -138 -96zM353 708h98
c16 -187 -320 -184 -304 0h99c0 -70 107 -71 107 0z" />
    <glyph glyph-name="Edotaccent" unicode="&#x116;" horiz-adv-x="665" 
d="M607 0v130h-393v158h379v123h-379v161h393v128h-524v-700h524zM276 842c0 90 147 90 147 0s-147 -90 -147 0z" />
    <glyph glyph-name="edotaccent" unicode="&#x117;" horiz-adv-x="581" 
d="M548 203c19 203 -84 305 -249 305c-160 0 -262 -108 -262 -258c0 -158 101 -263 271 -263c75 0 160 26 212 80l-78 77c-28 -29 -87 -46 -132 -46c-86 0 -139 44 -147 105h385zM165 304c18 64 72 96 138 96c70 0 120 -32 128 -96h-266zM225 649c0 88 145 88 145 0
s-145 -88 -145 0z" />
    <glyph glyph-name="Eogonek" unicode="&#x118;" horiz-adv-x="665" 
d="M607 130v-130c-86 8 -142 -23 -129 -63c8 -26 60 -43 106 -4l62 -47c-58 -94 -249 -91 -265 16c-4 24 -2 74 50 98h-348v700h524v-128h-393v-161h379v-123h-379v-158h393z" />
    <glyph glyph-name="eogonek" unicode="&#x119;" horiz-adv-x="582" 
d="M548 203h-385c8 -61 61 -105 147 -105c45 0 104 17 132 46l78 -77c-27 -28 -63 -49 -102 -62c-27 -9 -48 -27 -39 -56c8 -26 60 -43 106 -4l62 -47c-55 -89 -231 -84 -257 7c-8 28 -4 65 12 85c-166 8 -265 108 -265 260c0 150 102 258 262 258c165 0 268 -102 249 -305z
M165 304h266c-8 64 -58 96 -128 96c-66 0 -120 -32 -138 -96z" />
    <glyph glyph-name="Ecaron" unicode="&#x11a;" horiz-adv-x="665" 
d="M607 130v-130h-524v700h524v-128h-393v-161h379v-123h-379v-158h393zM323 774l-148 127v6h124l58 -57l64 57h120v-6l-152 -127h-66z" />
    <glyph glyph-name="ecaron" unicode="&#x11b;" horiz-adv-x="581" 
d="M548 203h-385c8 -61 61 -105 147 -105c45 0 104 17 132 46l78 -77c-52 -54 -137 -80 -212 -80c-170 0 -271 105 -271 263c0 150 102 258 262 258c165 0 268 -102 249 -305zM165 304h266c-8 64 -58 96 -128 96c-66 0 -120 -32 -138 -96zM264 565l-152 130v5h127l61 -57
l65 57h123v-5l-155 -130h-69z" />
    <glyph glyph-name="Gcircumflex" unicode="&#x11c;" horiz-adv-x="743" 
d="M672 613l-82 -84c-47 45 -117 70 -178 70c-150 0 -241 -114 -241 -258c0 -115 67 -234 241 -234c55 0 103 12 158 56v124h-179v118h300v-295c-69 -79 -156 -126 -279 -126c-263 0 -370 173 -370 357c0 197 123 379 370 379c94 0 188 -36 260 -107zM217 784l148 138h67
l148 -138v-6h-124l-58 59l-57 -59h-124v6z" />
    <glyph glyph-name="gcircumflex" unicode="&#x11d;" horiz-adv-x="617" 
d="M434 478l55 68l90 -68l-62 -72c43 -51 57 -96 57 -147c0 -88 -41 -148 -122 -185c105 -38 122 -112 122 -160c0 -140 -137 -208 -269 -208c-171 0 -271 86 -266 227h121c-4 -69 68 -108 145 -109c68 0 142 29 142 90c0 59 -48 97 -140 97c-163 0 -270 94 -270 248
c0 166 132 250 270 250c39 0 93 -8 127 -31zM307 396c-80 0 -148 -45 -148 -137c0 -86 68 -136 148 -136s145 51 145 136c0 84 -65 137 -145 137zM119 585l150 130h68l149 -130v-6h-125l-59 56l-57 -56h-126v6z" />
    <glyph glyph-name="Gbreve" unicode="&#x11e;" horiz-adv-x="743" 
d="M672 613l-82 -84c-47 45 -117 70 -178 70c-150 0 -241 -114 -241 -258c0 -115 67 -234 241 -234c55 0 103 12 158 56v124h-179v118h300v-295c-69 -79 -156 -126 -279 -126c-263 0 -370 173 -370 357c0 197 123 379 370 379c94 0 188 -36 260 -107zM458 920h101
c16 -191 -328 -188 -311 0h101c0 -71 109 -72 109 0z" />
    <glyph glyph-name="gbreve" unicode="&#x11f;" horiz-adv-x="617" 
d="M434 478l55 68l90 -68l-62 -72c43 -51 57 -96 57 -147c0 -88 -41 -148 -122 -185c105 -38 122 -112 122 -160c0 -140 -137 -208 -269 -208c-171 0 -271 86 -266 227h121c-4 -69 68 -108 145 -109c68 0 142 29 142 90c0 59 -48 97 -140 97c-163 0 -270 94 -270 248
c0 166 132 250 270 250c39 0 93 -8 127 -31zM307 396c-80 0 -148 -45 -148 -137c0 -86 68 -136 148 -136s145 51 145 136c0 84 -65 137 -145 137zM360 710h98c16 -195 -318 -192 -302 0h99c0 -72 105 -73 105 0z" />
    <glyph glyph-name="Gdotaccent" unicode="&#x120;" horiz-adv-x="743" 
d="M590 529l82 84c-72 71 -166 107 -260 107c-247 0 -370 -182 -370 -379c0 -184 107 -357 370 -357c123 0 210 47 279 126v295h-300v-118h179v-124c-55 -44 -103 -56 -158 -56c-174 0 -241 119 -241 234c0 144 91 258 241 258c61 0 131 -25 178 -70zM338 853
c0 89 144 89 144 0c0 -88 -144 -88 -144 0z" />
    <glyph glyph-name="gdotaccent" unicode="&#x121;" horiz-adv-x="617" 
d="M434 478c-34 23 -88 31 -127 31c-138 0 -270 -84 -270 -250c0 -154 107 -248 270 -248c92 0 140 -38 140 -97c0 -61 -74 -90 -142 -90c-77 1 -149 40 -145 109h-121c-5 -141 95 -227 266 -227c132 0 269 68 269 208c0 48 -17 122 -122 160c81 37 122 97 122 185
c0 51 -14 96 -57 147l62 72l-90 68zM307 396c80 0 145 -53 145 -137c0 -85 -65 -136 -145 -136s-148 50 -148 136c0 92 68 137 148 137zM237 647c0 90 149 90 149 0c0 -91 -149 -91 -149 0z" />
    <glyph glyph-name="Gcommaaccent" unicode="&#x122;" horiz-adv-x="743" 
d="M489 -137c0 -18 -16 -65 -51 -129h-69l31 77c-32 3 -53 24 -53 55c0 92 142 88 142 -3zM672 613l-82 -84c-47 45 -117 70 -178 70c-150 0 -241 -114 -241 -258c0 -115 67 -234 241 -234c55 0 103 12 158 56v124h-179v118h300v-295c-69 -79 -156 -126 -279 -126
c-263 0 -370 173 -370 357c0 197 123 379 370 379c94 0 188 -36 260 -107z" />
    <glyph glyph-name="gcommaaccent" unicode="&#x123;" horiz-adv-x="617" 
d="M241 647c0 18 16 65 51 129h69l-31 -77c32 -3 53 -24 53 -55c0 -92 -142 -88 -142 3zM434 478c-34 23 -88 31 -127 31c-138 0 -270 -84 -270 -250c0 -154 107 -248 270 -248c92 0 140 -38 140 -97c0 -61 -74 -90 -142 -90c-77 1 -149 40 -145 109h-121
c-5 -141 95 -227 266 -227c132 0 269 68 269 208c0 48 -17 122 -122 160c81 37 122 97 122 185c0 51 -14 96 -57 147l62 72l-90 68zM307 396c80 0 145 -53 145 -137c0 -85 -65 -136 -145 -136s-148 50 -148 136c0 92 68 137 148 137z" />
    <glyph glyph-name="Hcircumflex" unicode="&#x124;" horiz-adv-x="773" 
d="M690 -1h-131v283h-344v-283h-132v700h132v-295h344v295h131v-700zM200 777l148 138h67l148 -138v-6h-124l-58 59l-57 -59h-124v6z" />
    <glyph glyph-name="hcircumflex" unicode="&#x125;" horiz-adv-x="603" 
d="M66 700h122v-274c44 57 98 74 154 74c140 0 202 -95 202 -240v-260h-122v259c0 90 -47 128 -112 128c-72 0 -122 -61 -122 -135v-252h-122v700zM136 773l143 133h65l143 -133v-6h-120l-56 57l-55 -57h-120v6z" />
    <glyph glyph-name="Hbar" unicode="&#x126;" horiz-adv-x="785" 
d="M696 -1h-131v283h-344v-283h-132v520h-65v83h65v97h132v-97h344v97h131v-97h67v-83h-67v-520zM221 404h344v115h-344v-115z" />
    <glyph glyph-name="hbar" unicode="&#x127;" horiz-adv-x="603" 
d="M6 555v83h60v62h122v-62h108v-83h-108v-129c44 57 98 74 154 74c140 0 202 -95 202 -240v-260h-122v259c0 90 -47 128 -112 128c-72 0 -122 -61 -122 -135v-252h-122v555h-60z" />
    <glyph glyph-name="Itilde" unicode="&#x128;" horiz-adv-x="297" 
d="M214 0h-131v700h131v-700zM64 777l-71 41c22 58 58 100 120 85c43 -11 86 -63 115 -1l74 -38c-27 -76 -73 -99 -117 -87c-45 14 -85 72 -121 0z" />
    <glyph glyph-name="itilde" unicode="&#x129;" horiz-adv-x="260" 
d="M194 0h-128v476h128v-476zM58 593l-61 39c19 57 51 97 104 83c38 -11 76 -61 101 -1l65 -36c-24 -74 -64 -97 -102 -85c-40 13 -75 70 -107 0z" />
    <glyph glyph-name="Ibreve" unicode="&#x12c;" horiz-adv-x="297" 
d="M214 0h-131v700h131v-700zM202 911h95c16 -192 -309 -189 -294 0h96c0 -72 103 -73 103 0z" />
    <glyph glyph-name="ibreve" unicode="&#x12d;" horiz-adv-x="260" 
d="M194 0h-128v476h128v-476zM178 699h86c14 -186 -280 -184 -266 0h87c0 -70 93 -71 93 0z" />
    <glyph glyph-name="Iogonek" unicode="&#x12e;" horiz-adv-x="299" 
d="M124 -64c8 -26 60 -43 106 -4l62 -47c-58 -94 -238 -78 -259 24c-7 32 -4 88 51 115v676h131v-700c-62 3 -104 -23 -91 -64z" />
    <glyph glyph-name="iogonek" unicode="&#x12f;" horiz-adv-x="257" 
d="M191 495h-122v-469c-57 -25 -64 -84 -59 -117c18 -105 195 -121 253 -27l-62 47c-46 -39 -92 -19 -100 7c-13 43 39 68 90 64v495zM58 632c0 95 144 95 144 0s-144 -95 -144 0z" />
    <glyph glyph-name="Idotaccent" unicode="&#x130;" horiz-adv-x="297" 
d="M83 0h131v700h-131v-700zM77 847c0 95 144 95 144 0s-144 -95 -144 0z" />
    <glyph glyph-name="IJ" unicode="&#x132;" horiz-adv-x="1007" 
d="M214 0h-131v700h131v-700zM933 700v-401c0 -181 -115 -313 -308 -313c-179 0 -307 107 -307 305h130c0 -120 58 -181 177 -181c120 0 176 83 176 189v278h-211v123h343z" />
    <glyph glyph-name="ij" unicode="&#x133;" horiz-adv-x="507" 
d="M188 495h-122v-495h122v495zM55 632c0 95 144 95 144 0s-144 -95 -144 0zM441 495h-121v-547c0 -54 -9 -80 -49 -82c-18 -1 -38 4 -59 14l-44 -95c35 -23 73 -33 109 -33c111 0 164 62 164 196v547zM309 633c0 95 144 95 144 0s-144 -95 -144 0z" />
    <glyph glyph-name="Jcircumflex" unicode="&#x134;" horiz-adv-x="710" 
d="M636 700v-401c0 -181 -115 -313 -308 -313c-179 0 -307 107 -307 305h130c0 -120 58 -181 177 -181c120 0 176 83 176 189v278h-211v123h343zM233 784l148 138h67l148 -138v-6h-124l-58 59l-57 -59h-124v6z" />
    <glyph glyph-name="jcircumflex" unicode="&#x135;" horiz-adv-x="253" 
d="M66 495h121v-547c0 -134 -53 -196 -164 -196c-36 0 -74 10 -109 33l44 95c21 -10 41 -15 59 -14c40 2 49 28 49 82v547zM-34 570l130 144h59l130 -144v-6h-109l-51 61l-50 -61h-109v6z" />
    <glyph glyph-name="Kcommaaccent" unicode="&#x136;" horiz-adv-x="666" 
d="M425 -128c0 -18 -16 -65 -51 -129h-69l31 77c-32 3 -53 24 -53 55c0 92 142 88 142 -3zM645 700v-4l-311 -335l337 -353v-8h-163l-293 310v-310h-132v700h132v-296l266 296h164z" />
    <glyph glyph-name="kcommaaccent" unicode="&#x137;" horiz-adv-x="529" 
d="M347 -123c0 -17 -15 -62 -48 -123h-66l29 73c-30 3 -50 23 -50 53c0 87 135 83 135 -3zM66 699h122v-404l166 198h146v-7l-201 -225l229 -252v-9h-147l-193 223v-223h-122v699z" />
    <glyph glyph-name="kgreenlandic" unicode="&#x138;" horiz-adv-x="529" 
d="M66 493h122v-198l166 198h146v-7l-201 -225l229 -252v-9h-147l-193 223v-223h-122v493z" />
    <glyph glyph-name="Lacute" unicode="&#x139;" horiz-adv-x="592" 
d="M215 700h-132v-700h492v122h-360v578zM318 915v-5l-110 -137h-108v6l74 136h144z" />
    <glyph glyph-name="lacute" unicode="&#x13a;" horiz-adv-x="259" 
d="M190 699h-121v-699h121v699zM281 909v-5l-107 -133h-105v6l72 132h140z" />
    <glyph glyph-name="Lcommaaccent" unicode="&#x13b;" horiz-adv-x="592" 
d="M412 -132c0 -18 -16 -65 -51 -129h-69l31 77c-32 3 -53 24 -53 55c0 92 142 88 142 -3zM83 700h132v-578h360v-122h-492v700z" />
    <glyph glyph-name="lcommaaccent" unicode="&#x13c;" horiz-adv-x="259" 
d="M201 -126c0 -18 -16 -65 -51 -129h-69l31 77c-32 3 -53 24 -53 55c0 92 142 88 142 -3zM69 699h121v-699h-121v699z" />
    <glyph glyph-name="Lcaron" unicode="&#x13d;" horiz-adv-x="594" 
d="M83 700h132v-578h360v-122h-492v700zM360 488l47 205h124l-77 -205h-94z" />
    <glyph glyph-name="lcaron" unicode="&#x13e;" horiz-adv-x="256" 
d="M69 699h121v-699h-121v699zM225 496l45 204h116l-72 -204h-89z" />
    <glyph glyph-name="Ldot" unicode="&#x13f;" horiz-adv-x="592" 
d="M83 700h132v-578h360v-122h-492v700zM325 316c0 100 152 100 152 0s-152 -100 -152 0z" />
    <glyph glyph-name="ldot" unicode="&#x140;" horiz-adv-x="396" 
d="M69 699h121v-699h-121v699zM252 310c0 100 152 100 152 0s-152 -100 -152 0z" />
    <glyph glyph-name="Nacute" unicode="&#x143;" horiz-adv-x="777" 
d="M562 229l-372 471h-107v-700h132v466l372 -466h107v700h-132v-471zM529 911v-5l-110 -137h-108v6l74 136h144z" />
    <glyph glyph-name="nacute" unicode="&#x144;" horiz-adv-x="613" 
d="M432 0h122v259c0 155 -93 242 -209 242c-62 0 -112 -25 -162 -74l-8 67h-109v-494h121v252c0 75 51 138 126 138c78 0 119 -57 119 -132v-258zM444 699v-5l-103 -128h-102v5l70 128h135z" />
    <glyph glyph-name="Ncommaaccent" unicode="&#x145;" horiz-adv-x="777" 
d="M480 -129c0 -18 -16 -65 -51 -129h-69l31 77c-32 3 -53 24 -53 55c0 92 142 88 142 -3zM190 700l372 -471v471h132v-700h-107l-372 466v-466h-132v700h107z" />
    <glyph glyph-name="ncommaaccent" unicode="&#x146;" horiz-adv-x="613" 
d="M378 -122c0 -17 -15 -62 -48 -122h-65l29 73c-30 2 -50 22 -50 51c0 87 134 83 134 -2zM554 0h-122v258c0 75 -41 132 -119 132c-75 0 -126 -63 -126 -138v-252h-121v494h109l8 -67c50 49 100 74 162 74c116 0 209 -87 209 -242v-259z" />
    <glyph glyph-name="Ncaron" unicode="&#x147;" horiz-adv-x="777" 
d="M190 700l372 -471v471h132v-700h-107l-372 466v-466h-132v700h107zM355 763l-148 138v6h124l59 -61l64 61h120v-6l-152 -138h-67z" />
    <glyph glyph-name="ncaron" unicode="&#x148;" horiz-adv-x="613" 
d="M554 0h-122v258c0 75 -41 132 -119 132c-75 0 -126 -63 -126 -138v-252h-121v494h109l8 -67c50 49 100 74 162 74c116 0 209 -87 209 -242v-259zM277 568l-144 136v5h121l58 -59l62 59h118v-5l-149 -136h-66z" />
    <glyph glyph-name="napostrophe" unicode="&#x149;" horiz-adv-x="613" 
d="M554 0h-122v258c0 75 -41 132 -119 132c-75 0 -126 -63 -126 -138v-252h-121v494h109l8 -67c50 49 100 74 162 74c116 0 209 -87 209 -242v-259z" />
    <glyph glyph-name="Eng" unicode="&#x14a;" horiz-adv-x="777" 
d="M190 700l372 -471v471h132v-721c0 -134 -53 -196 -164 -196c-36 0 -74 10 -109 33l44 95c21 -10 41 -15 59 -14c40 2 48 28 48 82v40l-357 447v-466h-132v700h107z" />
    <glyph glyph-name="eng" unicode="&#x14b;" horiz-adv-x="613" 
d="M432 -27v285c0 75 -41 132 -119 132c-75 0 -126 -63 -126 -138v-252h-121v494h109l8 -67c50 49 100 74 162 74c116 0 209 -87 209 -242v-286c0 -134 -53 -196 -164 -196c-36 0 -74 10 -109 33l44 95c21 -10 41 -15 59 -14c40 2 48 28 48 82z" />
    <glyph glyph-name="Obreve" unicode="&#x14e;" horiz-adv-x="802" 
d="M405 714c239 -2 358 -186 356 -368c-2 -181 -113 -362 -359 -362s-360 177 -360 361c0 221 160 369 363 369zM172 343c3 -115 65 -238 230 -238s227 124 229 239c2 117 -65 247 -226 250c-149 0 -237 -112 -233 -251zM456 926h101c16 -198 -328 -195 -311 0h101
c0 -74 109 -75 109 0z" />
    <glyph glyph-name="obreve" unicode="&#x14f;" horiz-adv-x="585" 
d="M291 503c157 0 258 -116 258 -257c0 -142 -97 -257 -257 -257s-256 115 -256 257c0 141 98 257 255 257zM292 392c-88 0 -134 -72 -134 -146c0 -75 45 -145 134 -145s134 70 134 145c0 74 -52 146 -134 146zM344 704h98c16 -198 -319 -195 -303 0h99c0 -74 106 -75 106 0
z" />
    <glyph glyph-name="Ohungarumlaut" unicode="&#x150;" horiz-adv-x="802" 
d="M405 714c-203 0 -363 -148 -363 -369c0 -184 114 -361 360 -361s357 181 359 362c2 182 -117 366 -356 368zM172 343c-4 139 84 251 233 251c161 -3 228 -133 226 -250c-2 -115 -64 -239 -229 -239s-227 123 -230 238zM630 913v-3l-116 -132h-98l87 135h127zM452 914v-3
l-113 -132h-100l86 135h127z" />
    <glyph glyph-name="ohungarumlaut" unicode="&#x151;" horiz-adv-x="585" 
d="M291 503c-157 0 -255 -116 -255 -257c0 -142 96 -257 256 -257s257 115 257 257c0 141 -101 257 -258 257zM292 392c82 0 134 -72 134 -146c0 -75 -45 -145 -134 -145s-134 70 -134 145c0 74 46 146 134 146zM519 701v-3l-114 -121h-96l86 124h124zM345 702v-4l-111 -120
h-97l84 124h124z" />
    <glyph glyph-name="Racute" unicode="&#x154;" horiz-adv-x="728" 
d="M703 0v9l-212 239c133 27 177 124 177 220c0 121 -87 231 -252 232c-111 0 -222 1 -333 1v-701h132v234h134l203 -234h151zM215 577h201c83 0 120 -56 120 -112s-36 -112 -120 -112h-201v224zM484 918v-5l-110 -137h-108v6l74 136h144z" />
    <glyph glyph-name="racute" unicode="&#x155;" horiz-adv-x="453" 
d="M179 493h-113v-493h122v260c0 91 59 125 123 125c40 0 63 -11 88 -32l55 106c-27 27 -76 47 -127 47c-50 0 -101 -9 -139 -70zM393 699v-5l-103 -128h-101v5l70 128h134z" />
    <glyph glyph-name="Rcommaaccent" unicode="&#x156;" horiz-adv-x="728" 
d="M460 -129c0 -18 -16 -65 -51 -129h-69l31 77c-32 3 -53 24 -53 55c0 92 142 88 142 -3zM703 9v-9h-151l-203 234h-134v-234h-132v701c111 0 222 -1 333 -1c165 -1 252 -111 252 -232c0 -96 -44 -193 -177 -220zM416 577h-201v-224h201c84 0 120 56 120 112
s-37 112 -120 112z" />
    <glyph glyph-name="rcommaaccent" unicode="&#x157;" horiz-adv-x="453" 
d="M194 -127c0 -17 -15 -61 -48 -121h-64l29 73c-30 2 -50 21 -50 51c0 86 133 82 133 -3zM66 493h113l9 -57c38 61 89 70 139 70c51 0 100 -20 127 -47l-55 -106c-25 21 -48 32 -88 32c-64 0 -123 -34 -123 -125v-260h-122v493z" />
    <glyph glyph-name="Rcaron" unicode="&#x158;" horiz-adv-x="728" 
d="M703 9v-9h-151l-203 234h-134v-234h-132v701c111 0 222 -1 333 -1c165 -1 252 -111 252 -232c0 -96 -44 -193 -177 -220zM416 577h-201v-224h201c84 0 120 56 120 112s-37 112 -120 112zM304 768l-150 136v6h126l60 -60l65 60h121v-6l-154 -136h-68z" />
    <glyph glyph-name="rcaron" unicode="&#x159;" horiz-adv-x="453" 
d="M66 493h113l9 -57c38 61 89 70 139 70c51 0 100 -20 127 -47l-55 -106c-25 21 -48 32 -88 32c-64 0 -123 -34 -123 -125v-260h-122v493zM223 564l-140 130v6h117l56 -58l61 58h113v-6l-144 -130h-63z" />
    <glyph glyph-name="Sacute" unicode="&#x15a;" horiz-adv-x="664" 
d="M500 531l105 54c-53 108 -166 139 -275 139c-129 -1 -271 -60 -271 -204c0 -157 132 -195 275 -212c93 -10 162 -37 162 -103c0 -76 -78 -105 -161 -105c-85 0 -166 34 -197 111l-110 -57c52 -128 162 -172 305 -172c156 0 294 67 294 223c0 167 -136 205 -282 223
c-84 10 -156 27 -156 88c0 52 47 93 145 93c76 0 142 -38 166 -78zM482 923v-5l-110 -137h-108v6l74 136h144z" />
    <glyph glyph-name="sacute" unicode="&#x15b;" horiz-adv-x="497" 
d="M376 362l68 80c-57 50 -115 65 -192 65c-90 0 -208 -40 -208 -154c0 -112 111 -146 204 -153c70 -4 98 -23 98 -57c0 -36 -43 -55 -89 -54c-55 1 -123 20 -170 69l-60 -87c72 -75 150 -88 228 -88c141 0 212 75 212 162c0 131 -118 152 -211 158c-63 4 -92 22 -92 54
c0 31 32 49 90 49c47 0 87 -11 122 -44zM382 701v-5l-101 -125h-99v5l68 125h132z" />
    <glyph glyph-name="Scircumflex" unicode="&#x15c;" horiz-adv-x="664" 
d="M605 585l-105 -54c-24 40 -90 78 -166 78c-98 0 -145 -41 -145 -93c0 -61 72 -78 156 -88c146 -18 282 -56 282 -223c0 -156 -138 -223 -294 -223c-143 0 -253 44 -305 172l110 57c31 -77 112 -111 197 -111c83 0 161 29 161 105c0 66 -69 93 -162 103
c-143 17 -275 55 -275 212c0 144 142 203 271 204c109 0 222 -31 275 -139zM159 788l148 138h67l148 -138v-6h-124l-58 59l-57 -59h-124v6z" />
    <glyph glyph-name="scircumflex" unicode="&#x15d;" horiz-adv-x="497" 
d="M444 442l-68 -80c-35 33 -75 44 -122 44c-58 0 -90 -18 -90 -49c0 -32 29 -50 92 -54c93 -6 211 -27 211 -158c0 -87 -71 -162 -212 -162c-78 0 -156 13 -228 88l60 87c47 -49 115 -68 170 -69c46 -1 89 18 89 54c0 34 -28 53 -98 57c-93 7 -204 41 -204 153
c0 114 118 154 208 154c77 0 135 -15 192 -65zM78 571l144 134h65l144 -134v-6h-120l-57 57l-55 -57h-121v6z" />
    <glyph glyph-name="Scedilla" unicode="&#x15e;" horiz-adv-x="666" 
d="M201 -192l55 44c29 -38 110 -43 122 -4c11 36 -48 59 -87 34l-30 22l29 80c-122 8 -215 55 -261 170l110 57c31 -77 112 -111 197 -111c83 0 161 29 161 105c0 66 -69 93 -162 103c-143 17 -275 55 -275 212c0 144 142 203 271 204c109 0 222 -31 275 -139l-105 -54
c-24 40 -90 78 -166 78c-98 0 -145 -41 -145 -93c0 -61 72 -78 156 -88c146 -18 282 -56 282 -223c0 -140 -112 -208 -247 -221l-13 -39c94 -3 115 -63 106 -111c-26 -111 -210 -121 -273 -26z" />
    <glyph glyph-name="scedilla" unicode="&#x15f;" horiz-adv-x="499" 
d="M130 -176l51 40c27 -35 101 -40 113 -4c10 34 -45 55 -81 31l-28 21l27 73c-63 5 -126 25 -184 86l60 87c47 -49 115 -68 170 -69c46 -1 89 18 89 54c0 34 -28 53 -98 57c-93 7 -204 41 -204 153c0 114 118 154 208 154c77 0 135 -15 192 -65l-68 -80
c-35 33 -75 44 -122 44c-58 0 -90 -18 -90 -49c0 -32 29 -50 92 -54c93 -6 211 -27 211 -158c0 -80 -59 -149 -177 -160l-11 -35c99 1 110 -58 102 -102c-24 -104 -194 -113 -252 -24z" />
    <glyph glyph-name="Tcommaaccent" unicode="&#x162;" horiz-adv-x="610" 
d="M239 0v580h-222v120h576v-120h-222v-580h-44l-14 -47c97 -3 113 -60 104 -110c-25 -116 -204 -126 -265 -27l53 45c29 -39 107 -44 119 -4c11 38 -47 62 -85 35l-29 23z" />
    <glyph glyph-name="tcommaaccent" unicode="&#x163;" horiz-adv-x="415" 
d="M121 619l122 13v-140h136v-105h-137v-213c0 -47 26 -70 64 -70c19 0 41 6 59 15l34 -104c-35 -14 -64 -20 -101 -21h-8l-14 -40c92 -3 111 -60 102 -105c-24 -108 -201 -117 -261 -26l52 42c29 -36 105 -41 118 -4c11 35 -47 57 -85 32l-25 22l32 94
c-55 25 -88 80 -88 165v213h-92v105h92v127z" />
    <glyph glyph-name="Tcaron" unicode="&#x164;" horiz-adv-x="610" 
d="M239 0v580h-222v120h576v-120h-222v-580h-132zM272 763l-148 138v6h124l59 -61l64 61h120v-6l-152 -138h-67z" />
    <glyph glyph-name="tcaron" unicode="&#x165;" horiz-adv-x="472" 
d="M110 619l122 13v-140h101v-105h-102v-213c0 -47 26 -70 64 -70c19 0 41 6 59 15l34 -104c-35 -14 -64 -20 -101 -21c-107 -4 -177 57 -177 180v213h-81v105h81v127zM369 441l42 186h113l-70 -186h-85z" />
    <glyph glyph-name="Tbar" unicode="&#x166;" horiz-adv-x="616" 
d="M136 293v96h106v191h-222v120h576v-120h-222v-191h112v-96h-112v-293h-132v293h-106z" />
    <glyph glyph-name="tbar" unicode="&#x167;" horiz-adv-x="415" 
d="M49 219v86h72v82h-92v105h92v127l122 13v-140h136v-105h-137v-82h103v-86h-103v-45c0 -47 26 -70 64 -70c19 0 41 6 59 15l34 -104c-35 -14 -64 -20 -101 -21c-107 -4 -177 57 -177 180v45h-72z" />
    <glyph glyph-name="Utilde" unicode="&#x168;" horiz-adv-x="762" 
d="M557 699h131v-401c0 -207 -127 -313 -303 -313c-168 0 -311 102 -311 313v401h131v-401c0 -126 72 -193 181 -193s171 73 171 193v401zM300 779l-76 41c24 59 63 101 129 86c47 -11 93 -63 124 -1l80 -38c-29 -77 -79 -100 -126 -88c-49 14 -92 73 -131 0z" />
    <glyph glyph-name="utilde" unicode="&#x169;" 
d="M58 493h122v-258c0 -75 41 -132 119 -132c75 0 126 63 126 138v252h121v-494h-109l-8 67c-51 -50 -98 -74 -167 -74c-118 0 -204 89 -204 242v259zM218 590l-76 41c24 59 63 101 129 86c47 -11 93 -63 124 -1l80 -38c-29 -77 -79 -100 -126 -88c-49 14 -92 73 -131 0z
" />
    <glyph glyph-name="Ubreve" unicode="&#x16c;" horiz-adv-x="762" 
d="M557 699h131v-401c0 -207 -127 -313 -303 -313c-168 0 -311 102 -311 313v401h131v-401c0 -126 72 -193 181 -193s171 73 171 193v401zM435 913h98c16 -198 -319 -195 -303 0h99c0 -74 106 -75 106 0z" />
    <glyph glyph-name="ubreve" unicode="&#x16d;" 
d="M58 493h122v-258c0 -75 41 -132 119 -132c75 0 126 63 126 138v252h121v-494h-109l-8 67c-51 -50 -98 -74 -167 -74c-118 0 -204 89 -204 242v259zM361 694h98c16 -190 -318 -187 -302 0h99c0 -71 105 -72 105 0z" />
    <glyph glyph-name="Uring" unicode="&#x16e;" horiz-adv-x="762" 
d="M557 699h131v-401c0 -207 -127 -313 -303 -313c-168 0 -311 102 -311 313v401h131v-401c0 -126 72 -193 181 -193s171 73 171 193v401zM245 833c0 73 68 110 135 110c65 0 133 -37 133 -110c0 -72 -68 -108 -133 -108c-67 0 -135 36 -135 108zM378 880
c-78 0 -77 -92 0 -92c80 0 76 92 0 92z" />
    <glyph glyph-name="uring" unicode="&#x16f;" 
d="M58 493h122v-258c0 -75 41 -132 119 -132c75 0 126 63 126 138v252h121v-494h-109l-8 67c-51 -50 -98 -74 -167 -74c-118 0 -204 89 -204 242v259zM175 649c0 73 65 111 129 111c63 0 129 -38 129 -111s-66 -109 -129 -109c-64 0 -129 36 -129 109zM302 697
c-75 0 -74 -93 0 -93c77 0 73 93 0 93z" />
    <glyph glyph-name="Uhungarumlaut" unicode="&#x170;" horiz-adv-x="762" 
d="M688 699h-131v-401c0 -120 -62 -193 -171 -193s-181 67 -181 193v401h-131v-401c0 -211 143 -313 311 -313c176 0 303 106 303 313v401zM606 905v-3l-112 -131h-95l85 134h122zM434 906v-3l-109 -131h-97l84 134h122z" />
    <glyph glyph-name="uhungarumlaut" unicode="&#x171;" 
d="M180 493h-122v-259c0 -153 86 -242 204 -242c69 0 116 24 167 74l8 -67h109v494h-121v-252c0 -75 -51 -138 -126 -138c-78 0 -119 57 -119 132v258zM518 701v-4l-107 -124h-91l81 128h117zM354 702v-4l-105 -124h-92l80 128h117z" />
    <glyph glyph-name="Uogonek" unicode="&#x172;" horiz-adv-x="763" 
d="M557 699h131v-401c0 -151 -67 -248 -172 -290h1c-31 -11 -54 -45 -41 -73c11 -25 65 -29 108 7l67 -51c-52 -83 -200 -90 -248 -24c-29 40 -38 82 -18 120c-179 1 -311 105 -311 311v401h131v-401c0 -126 72 -193 181 -193s171 73 171 193v401z" />
    <glyph glyph-name="uogonek" unicode="&#x173;" 
d="M546 493v-555c-41 6 -115 -14 -100 -63c8 -26 60 -43 106 -4l62 -47c-58 -94 -230 -76 -259 24c-11 37 -3 115 82 138l-8 80c-51 -50 -98 -74 -167 -74c-118 0 -204 89 -204 242v259h122v-258c0 -75 41 -132 119 -132c75 0 126 63 126 138v252h121z" />
    <glyph glyph-name="Wcircumflex" unicode="&#x174;" horiz-adv-x="1073" 
d="M1061 700l-252 -700h-112l-87 220l-74 221l-73 -223l-85 -218h-112l-257 700h148l165 -505l170 505h86l175 -505l160 505h148zM341 783l160 139h72l160 -139v-6h-134l-63 59l-61 -59h-134v6z" />
    <glyph glyph-name="wcircumflex" unicode="&#x175;" horiz-adv-x="855" 
d="M374 494h107l108 -371l113 371h135l-172 -496h-142l-51 146l-44 165l-44 -165l-51 -146h-142l-173 496h136l113 -371zM245 586l150 129h68l149 -129v-6h-125l-59 56l-57 -56h-126v6z" />
    <glyph glyph-name="Ycircumflex" unicode="&#x176;" horiz-adv-x="695" 
d="M168 700l178 -289l186 289h159v-6l-279 -405v-289h-132v289l-269 405v6h157zM157 784l153 132h69l154 -132v-6h-129l-60 57l-59 -57h-128v6z" />
    <glyph glyph-name="ycircumflex" unicode="&#x177;" horiz-adv-x="565" 
d="M421 493h135l-310 -719h-134l101 234l-197 485h142l75 -213l47 -139l51 136zM95 580l151 135h68l150 -135v-6h-126l-59 58l-58 -58h-126v6z" />
    <glyph glyph-name="Zacute" unicode="&#x179;" horiz-adv-x="620" 
d="M51 700v-121h337l-355 -503v-76h547v125h-363l363 513v62h-529zM460 916v-5l-110 -137h-108v6l74 136h144z" />
    <glyph glyph-name="zacute" unicode="&#x17a;" horiz-adv-x="485" 
d="M443 493h-395v-111h218l-236 -331v-51h415v120h-229l227 315v58zM385 698v-4l-107 -122h-106v6l72 120h141z" />
    <glyph glyph-name="Zdotaccent" unicode="&#x17b;" horiz-adv-x="620" 
d="M51 700v-121h337l-355 -503v-76h547v125h-363l363 513v62h-529zM246 847c0 95 144 95 144 0s-144 -95 -144 0z" />
    <glyph glyph-name="zdotaccent" unicode="&#x17c;" horiz-adv-x="485" 
d="M443 493h-395v-111h218l-236 -331v-51h415v120h-229l227 315v58zM177 640c0 95 144 95 144 0s-144 -95 -144 0z" />
    <glyph glyph-name="longs" unicode="&#x17f;" horiz-adv-x="324" 
d="M238 0h-122v379h-92v107h92v33c0 132 89 193 188 193c43 0 88 -14 128 -40l-45 -91c-26 17 -50 26 -75 26c-42 0 -74 -28 -74 -88v-519z" />
    <glyph glyph-name="macron" unicode="&#xaf;" horiz-adv-x="453" 
d="M35 600v102h358v-102h-358z" />
    <glyph glyph-name="Amacron" unicode="&#x100;" horiz-adv-x="778" 
d="M631 0l-59 132h-366l-60 -132h-143l314 700h144l314 -700h-144zM519 255l-130 298l-130 -298h260zM211 779v102h358v-102h-358z" />
    <glyph glyph-name="amacron" unicode="&#x101;" horiz-adv-x="638" 
d="M451 425l4 68h117v-493h-115l-6 72c-28 -58 -105 -86 -160 -87c-146 -1 -254 89 -254 262c0 170 113 259 257 258c66 0 129 -31 157 -80zM305 396c-81 0 -146 -55 -146 -149s65 -150 146 -150c192 0 192 299 0 299zM142 600v102h358v-102h-358z" />
    <glyph glyph-name="emacron" unicode="&#x113;" horiz-adv-x="581" 
d="M548 203h-385c8 -61 61 -105 147 -105c45 0 104 17 132 46l78 -77c-52 -54 -137 -80 -212 -80c-170 0 -271 105 -271 263c0 150 102 258 262 258c165 0 268 -102 249 -305zM165 304h266c-8 64 -58 96 -128 96c-66 0 -120 -32 -138 -96zM140 605v97h318v-97h-318z" />
    <glyph glyph-name="Emacron" unicode="&#x112;" horiz-adv-x="665" 
d="M607 130v-130h-524v700h524v-128h-393v-161h379v-123h-379v-158h393zM169 783v102h358v-102h-358z" />
    <glyph glyph-name="imacron" unicode="&#x12b;" horiz-adv-x="260" 
d="M194 0h-128v476h128v-476zM-6 594v99h273v-99h-273z" />
    <glyph glyph-name="Imacron" unicode="&#x12a;" horiz-adv-x="297" 
d="M214 0h-131v700h131v-700zM1 782v98h294v-98h-294z" />
    <glyph glyph-name="omacron" unicode="&#x14d;" horiz-adv-x="585" 
d="M291 503c157 0 258 -116 258 -257c0 -142 -97 -257 -257 -257s-256 115 -256 257c0 141 98 257 255 257zM292 392c-88 0 -134 -72 -134 -146c0 -75 45 -145 134 -145s134 70 134 145c0 74 -52 146 -134 146zM127 590v102h330v-102h-330z" />
    <glyph glyph-name="Omacron" unicode="&#x14c;" horiz-adv-x="802" 
d="M405 714c239 -2 358 -186 356 -368c-2 -181 -113 -362 -359 -362s-360 177 -360 361c0 221 160 369 363 369zM172 343c3 -115 65 -238 230 -238s227 124 229 239c2 117 -65 247 -226 250c-149 0 -237 -112 -233 -251zM224 792v102h358v-102h-358z" />
    <glyph glyph-name="umacron" unicode="&#x16b;" 
d="M58 493h122v-258c0 -75 41 -132 119 -132c75 0 126 63 126 138v252h121v-494h-109l-8 67c-51 -50 -98 -74 -167 -74c-118 0 -204 89 -204 242v259zM135 607v95h333v-95h-333z" />
    <glyph glyph-name="Umacron" unicode="&#x16a;" horiz-adv-x="762" 
d="M557 699h131v-401c0 -207 -127 -313 -303 -313c-168 0 -311 102 -311 313v401h131v-401c0 -126 72 -193 181 -193s171 73 171 193v401zM203 780v102h358v-102h-358z" />
    <glyph glyph-name="Scommaaccent" unicode="&#x218;" horiz-adv-x="664" 
d="M419 -143c0 -12 1 -9 -44 -146h-67l19 96c-28 5 -46 22 -46 53c0 89 138 85 138 -3zM605 585l-105 -54c-24 40 -90 78 -166 78c-98 0 -145 -41 -145 -93c0 -61 72 -78 156 -88c146 -18 282 -56 282 -223c0 -156 -138 -223 -294 -223c-143 0 -253 44 -305 172l110 57
c31 -77 112 -111 197 -111c83 0 161 29 161 105c0 66 -69 93 -162 103c-143 17 -275 55 -275 212c0 144 142 203 271 204c109 0 222 -31 275 -139z" />
    <glyph glyph-name="scommaaccent" unicode="&#x219;" horiz-adv-x="497" 
d="M323 -133c0 -11 1 -9 -40 -134h-61l17 88c-26 4 -42 20 -42 48c0 82 126 78 126 -2zM444 442l-68 -80c-35 33 -75 44 -122 44c-58 0 -90 -18 -90 -49c0 -32 29 -50 92 -54c93 -6 211 -27 211 -158c0 -87 -71 -162 -212 -162c-78 0 -156 13 -228 88l60 87
c47 -49 115 -68 170 -69c46 -1 89 18 89 54c0 34 -28 53 -98 57c-93 7 -204 41 -204 153c0 114 118 154 208 154c77 0 135 -15 192 -65z" />
    <glyph glyph-name="uni021A" unicode="&#x21a;" horiz-adv-x="610" 
d="M373 -142c0 -12 1 -9 -44 -146h-67l19 96c-28 5 -46 22 -46 53c0 89 138 85 138 -3zM239 0v580h-222v120h576v-120h-222v-580h-132z" />
    <glyph glyph-name="uni021B" unicode="&#x21b;" horiz-adv-x="415" 
d="M317 -132c0 -11 1 -9 -40 -134h-61l17 88c-26 4 -42 20 -42 48c0 82 126 78 126 -2zM121 619l122 13v-140h136v-105h-137v-213c0 -47 26 -70 64 -70c19 0 41 6 59 15l34 -104c-35 -14 -64 -20 -101 -21c-107 -4 -177 57 -177 180v213h-92v105h92v127z" />
    <glyph glyph-name="dotlessj" unicode="&#x237;" horiz-adv-x="253" 
d="M66 495h121v-547c0 -134 -53 -196 -164 -196c-36 0 -74 10 -109 33l44 95c21 -10 41 -15 59 -14c40 2 49 28 49 82v547z" />
    <glyph glyph-name="Aringacute" unicode="&#x1fa;" horiz-adv-x="779" 
d="M390 553l130 -298h-260zM387 789c70 0 74 -83 0 -83c-71 0 -72 83 0 83zM265 747c0 -34 16 -58 41 -74l-302 -673h143l60 132h366l59 -132h144l-303 674c23 16 39 40 39 73c0 65 -62 98 -123 98c-62 0 -124 -33 -124 -98zM555 958v-4l-117 -90h-114v4l78 90h153z" />
    <glyph glyph-name="aringacute" unicode="&#x1fb;" horiz-adv-x="638" 
d="M451 425c-28 49 -91 80 -157 80c-144 1 -257 -88 -257 -258c0 -173 108 -263 254 -262c55 1 132 29 160 87l6 -72h115v493h-117zM305 396c192 0 192 -299 0 -299c-81 0 -146 56 -146 150s65 149 146 149zM195 630c0 -66 59 -98 118 -98c57 0 116 32 116 98
c0 65 -59 99 -116 99c-59 0 -118 -34 -118 -99zM311 672c66 0 70 -83 0 -83c-67 0 -68 83 0 83zM477 854v-3l-108 -98h-107v4l73 97h142z" />
    <glyph glyph-name="AEacute" unicode="&#x1fc;" horiz-adv-x="911" 
d="M855 0v127h-295v161h281v122h-281v166h292v124h-432l-444 -700h151l89 141h220v-141h419zM436 258h-146l156 279l-10 -154v-125zM691 917v-5l-110 -137h-108v6l74 136h144z" />
    <glyph glyph-name="aeacute" unicode="&#x1fd;" horiz-adv-x="985" 
d="M949 203c39 185 -96 301 -231 304c-63 1 -126 -17 -171 -76v62h-92l-4 -68c-28 49 -91 80 -157 80c-144 1 -257 -88 -257 -258c0 -173 108 -263 254 -262c55 1 132 29 160 87l1 -72h90l5 64c32 -49 85 -77 162 -77c75 0 160 26 212 80l-78 77c-28 -29 -87 -46 -132 -46
c-86 0 -139 44 -147 105h385zM305 396c200 0 200 -299 0 -299c-81 0 -146 56 -146 150s65 149 146 149zM566 304c18 64 72 96 138 96c70 0 120 -32 128 -96h-266zM635 706v-5l-104 -130h-102v5l70 130h136z" />
    <glyph glyph-name="Oslashacute" unicode="&#x1fe;" horiz-adv-x="802" 
d="M402 714c-242 0 -360 -185 -360 -369c0 -108 39 -212 120 -281l-82 -136h127l49 81c42 -16 90 -25 146 -25c246 0 357 181 359 362c1 109 -42 219 -128 290l78 130h-128l-45 -75c-40 14 -86 23 -136 23zM402 105c-31 0 -58 4 -82 11l247 411c45 -49 65 -118 64 -183
c-2 -115 -64 -239 -229 -239zM402 594c26 0 50 -4 72 -10l-245 -407c-38 45 -56 107 -57 166c-3 118 65 251 230 251zM556 926v-5l-110 -137h-108v6l74 136h144z" />
    <glyph glyph-name="oslashacute" unicode="&#x1ff;" horiz-adv-x="585" 
d="M291 503c-157 0 -255 -116 -255 -257c0 -79 29 -150 83 -197l-67 -114h115l39 66c26 -7 55 -12 86 -12c160 0 257 115 257 257c0 77 -30 147 -84 194l66 112h-115l-37 -63c-27 9 -56 14 -88 14zM292 392c9 0 19 -1 28 -3l-137 -232c-17 25 -25 56 -25 89
c0 74 46 146 134 146zM292 101c-9 0 -18 0 -26 2l135 228c16 -25 25 -55 25 -85c0 -75 -45 -145 -134 -145zM424 699v-4l-99 -124h-98v5l67 123h130z" />
    <glyph glyph-name="Wgrave" unicode="&#x1e80;" horiz-adv-x="1073" 
d="M1061 700l-252 -700h-112l-87 220l-74 221l-73 -223l-85 -218h-112l-257 700h148l165 -505l170 505h86l175 -505l160 505h148zM380 910v5h144l74 -136v-6h-108z" />
    <glyph glyph-name="wgrave" unicode="&#x1e81;" horiz-adv-x="855" 
d="M374 494h107l108 -371l113 371h135l-172 -496h-142l-51 146l-44 165l-44 -165l-51 -146h-142l-173 496h136l113 -371zM288 694v5h136l70 -130v-5h-102z" />
    <glyph glyph-name="Wacute" unicode="&#x1e82;" horiz-adv-x="1073" 
d="M809 0l252 700h-148l-160 -505l-175 505h-86l-170 -505l-165 505h-148l257 -700h112l85 218l73 223l74 -221l87 -220h112zM682 906v-5l-106 -125h-105v5l72 125h139z" />
    <glyph glyph-name="wacute" unicode="&#x1e83;" horiz-adv-x="855" 
d="M481 494h-107l-107 -371l-113 371h-136l173 -496h142l51 146l44 165l44 -165l51 -146h142l172 496h-135l-113 -371zM570 699v-5l-102 -127h-101v5l69 127h134z" />
    <glyph glyph-name="Wdieresis" unicode="&#x1e84;" horiz-adv-x="1073" 
d="M809 0l252 700h-148l-160 -505l-175 505h-86l-170 -505l-165 505h-148l257 -700h112l85 218l73 223l74 -221l87 -220h112zM339 843c0 86 140 86 140 0c0 -85 -140 -85 -140 0zM588 843c0 86 140 86 140 0c0 -85 -140 -85 -140 0z" />
    <glyph glyph-name="wdieresis" unicode="&#x1e85;" horiz-adv-x="855" 
d="M481 494h-107l-107 -371l-113 371h-136l173 -496h142l51 146l44 165l44 -165l51 -146h142l172 496h-135l-113 -371zM247 650c0 88 131 88 131 0c0 -86 -131 -86 -131 0zM481 650c0 88 131 88 131 0c0 -86 -131 -86 -131 0z" />
    <glyph glyph-name="Ygrave" unicode="&#x1ef2;" horiz-adv-x="695" 
d="M168 700l178 -289l186 289h159v-6l-279 -405v-289h-132v289l-269 405v6h157zM201 902v4h140l71 -131v-6h-104z" />
    <glyph glyph-name="ygrave" unicode="&#x1ef3;" horiz-adv-x="565" 
d="M421 493h135l-310 -719h-134l101 234l-197 485h142l75 -213l47 -139l51 136zM142 695v4h140l72 -118v-6h-105z" />
    <glyph glyph-name="_376" unicode="&#x394;" horiz-adv-x="749" 
d="M435 700l314 -700h-772l314 700h144zM363 556l-191 -436h380z" />
    <glyph glyph-name="_377" unicode="&#x3a9;" horiz-adv-x="792" 
d="M381 594c-157 0 -233 -121 -234 -237c-1 -100 53 -202 157 -240v-117h-252v113h94c-86 73 -127 152 -127 247c0 198 151 354 362 354s362 -156 362 -354c0 -95 -41 -174 -127 -247h94v-113h-252v117c104 38 158 140 157 240c-1 116 -77 237 -234 237z" />
    <glyph glyph-name="pi" unicode="&#x3c0;" horiz-adv-x="683" 
d="M249 0h-121v387h-104v106h625v-106h-104v-225c0 -49 20 -82 84 -68l11 -97c-138 -26 -216 28 -216 163v227h-175v-387z" />
    <glyph glyph-name="commaaccent" horiz-adv-x="559" 
d="M338 -130c0 -12 1 -9 -45 -150h-69l19 99c-28 5 -47 23 -47 54c0 92 142 88 142 -3z" />
    <glyph glyph-name="commaaccent.alt" horiz-adv-x="550" 
d="M180 629c0 12 -1 9 45 150h69l-19 -99c28 -5 47 -23 47 -54c1 -92 -142 -88 -142 3z" />
    <glyph glyph-name="zero.tf" horiz-adv-x="705" 
d="M183 401v-101c0 -254 339 -254 339 0v101c0 250 -339 253 -339 0zM52 300v101c0 418 601 417 601 0v-101c0 -417 -601 -418 -601 0z" />
    <glyph glyph-name="one.tf" horiz-adv-x="705" 
d="M117 0v112h180v420l-162 -49v120l293 97v-588h186v-112h-497z" />
    <glyph glyph-name="two.tf" horiz-adv-x="705" 
d="M203 497h-131c13 173 152 212 286 212c139 0 276 -54 276 -218c0 -178 -134 -217 -281 -217c-58 0 -152 -15 -152 -91v-60h435v-123h-567v184c0 161 146 209 284 209c53 0 151 14 151 95c0 72 -66 105 -145 107c-81 0 -153 -25 -156 -98z" />
    <glyph glyph-name="three.tf" horiz-adv-x="705" 
d="M354 305h-109v108h101c71 0 146 19 147 84c0 40 -32 93 -144 93c-62 0 -146 -22 -146 -86h-132c0 151 150 206 279 206c132 0 274 -64 275 -213c0 -55 -36 -119 -97 -138c67 -22 114 -88 114 -147c0 -171 -161 -222 -296 -222c-133 0 -285 56 -286 215h133
c0 -72 97 -97 154 -97c67 0 156 28 156 103c0 42 -23 94 -149 94z" />
    <glyph glyph-name="four.tf" horiz-adv-x="705" 
d="M359 699h201v-438h82v-128h-82v-133h-130v133h-374l-12 134zM193 261h237v324z" />
    <glyph glyph-name="five.tf" horiz-adv-x="705" 
d="M598 699v-124h-378v-123h136c149 0 282 -61 281 -225c0 -159 -133 -235 -274 -235c-154 0 -286 55 -287 219h131c0 -77 88 -97 154 -97c64 0 145 30 145 113c1 79 -78 102 -150 102h-265v370h507z" />
    <glyph glyph-name="six.tf" horiz-adv-x="705" 
d="M199 481v4v-105c31 48 107 74 162 74c141 0 289 -59 289 -233c0 -155 -149 -232 -290 -232c-143 0 -292 77 -292 234v261c0 156 144 229 288 229c152 0 287 -60 287 -207h-132c0 62 -78 93 -153 93c-79 1 -159 -42 -159 -118zM360 107c83 0 159 37 159 114
s-70 118 -158 118s-163 -40 -162 -118c1 -77 75 -114 161 -114z" />
    <glyph glyph-name="seven.tf" horiz-adv-x="705" 
d="M314 0h-152l286 574h-349v126h522l7 -70z" />
    <glyph glyph-name="eight.tf" horiz-adv-x="705" 
d="M352 309c-82 0 -163 -31 -164 -100c-1 -54 57 -105 164 -105s165 50 164 105c-1 69 -76 100 -164 100zM50 211c1 54 35 121 107 150c-60 32 -88 84 -88 138c0 141 130 213 282 213c151 0 287 -73 287 -213c0 -48 -27 -106 -90 -132c72 -29 105 -102 106 -156
c3 -163 -147 -228 -303 -227c-152 1 -304 63 -301 227zM204 503c2 -61 71 -98 148 -98c81 0 146 37 148 98c2 59 -60 99 -149 99c-99 0 -149 -51 -147 -99z" />
    <glyph glyph-name="nine.tf" horiz-adv-x="705" 
d="M506 221v-4v105c-31 -48 -107 -74 -162 -74c-141 0 -289 59 -289 233c0 155 149 232 290 232c143 0 292 -77 292 -234v-261c0 -156 -144 -229 -288 -229c-152 0 -291 60 -291 207h132c0 -62 82 -93 157 -93c79 -1 159 42 159 118zM345 595c-83 0 -159 -37 -159 -114
s70 -118 158 -118s163 40 162 118c-1 77 -75 114 -161 114z" />
    <glyph glyph-name="Euro.tf" horiz-adv-x="705" 
d="M589 123l37 -122c-37 -11 -81 -17 -121 -17c-205 0 -311 102 -347 241h-68v97h54v23c0 10 0 20 1 30h-55v98h71c40 137 148 241 344 241c37 0 73 -5 108 -16l-42 -118c-22 6 -44 8 -66 8c-106 0 -174 -50 -210 -115h228l-22 -98h-236c-1 -10 -1 -20 -1 -30
c0 -8 0 -16 1 -23h220l-20 -97h-173c34 -67 101 -117 213 -117c27 0 56 5 84 15z" />
    <glyph glyph-name="cent.tf" horiz-adv-x="705" 
d="M503 138l75 -88c-38 -36 -82 -61 -134 -71v-70h-113v72c-118 27 -200 129 -200 253c0 119 76 224 200 253v73h113v-72c50 -10 95 -33 133 -70l-71 -79c-27 27 -77 44 -113 44c-77 0 -141 -65 -141 -149s64 -148 141 -148c36 0 83 24 110 52z" />
    <glyph glyph-name="sterling.tf" horiz-adv-x="705" 
d="M264 480c0 -35 8 -69 16 -103h207v-111h-184c4 -46 -10 -115 -65 -141h392v-125h-552v125c66 16 94 72 92 141h-92v111h71c-8 31 -18 69 -18 101c0 147 97 233 255 233c140 0 234 -62 241 -211h-121c-6 65 -45 95 -119 95c-92 0 -123 -53 -123 -115z" />
    <glyph glyph-name="florin.tf" horiz-adv-x="705" 
d="M285 -2v381h-145v107h145v33c0 132 89 193 188 193c43 0 88 -14 128 -40l-45 -91c-26 17 -50 26 -75 26c-42 0 -74 -28 -74 -88v-33h157v-107h-157v-381c0 -132 -89 -193 -188 -193c-43 0 -73 10 -113 36l45 91c26 -17 35 -22 60 -22c42 0 74 28 74 88z" />
    <glyph glyph-name="yen.tf" horiz-adv-x="705" 
d="M127 117v95h155v51h-155v97h108l-222 334v6h157l178 -289l186 289h159v-6l-230 -334h105v-97h-154v-51h154v-95h-154v-117h-132v117h-155z" />
    <glyph glyph-name="dollar.tf" horiz-adv-x="705" 
d="M629 579l-106 -49c-26 42 -99 75 -167 75c-82 0 -157 -24 -157 -93c0 -65 78 -77 161 -87c144 -18 298 -43 298 -217c0 -133 -112 -208 -234 -217v-99h-125v94c-111 10 -214 60 -260 169l117 49c26 -63 114 -104 196 -104c89 0 171 31 171 108c0 65 -82 89 -174 100
c-141 15 -279 40 -279 204c0 129 114 188 229 202v86h125v-86c84 -13 161 -44 205 -135z" />
    <glyph glyph-name="zero.denom" horiz-adv-x="403" 
d="M124 206v-55c0 -106 153 -106 153 0v55c0 109 -153 110 -153 0zM38 153v54c0 216 327 216 327 0v-54c0 -219 -327 -219 -327 0z" />
    <glyph glyph-name="one.denom" horiz-adv-x="275" 
d="M36 0v77h62v192l-53 -12v75l141 36v-291h64v-77h-214z" />
    <glyph glyph-name="two.denom" horiz-adv-x="373" 
d="M128 261h-88c1 78 74 114 142 114c89 0 154 -35 154 -119c0 -154 -209 -86 -209 -160v-11h204l-1 -85h-292v96c0 147 208 82 208 160c0 31 -26 42 -62 42c-29 0 -55 -12 -56 -37z" />
    <glyph glyph-name="three.denom" horiz-adv-x="378" 
d="M187 154h-57v67h53c38 0 61 5 62 39c0 11 -10 39 -61 39c-32 0 -59 -5 -67 -36h-78c0 79 78 111 146 111c70 0 148 -36 149 -114c0 -29 -16 -63 -48 -73c36 -11 57 -45 57 -76c0 -90 -89 -120 -160 -120c-70 0 -150 32 -151 115h92c8 -26 33 -35 62 -35c31 0 64 11 64 38
c0 23 -14 45 -63 45z" />
    <glyph glyph-name="four.denom" horiz-adv-x="386" 
d="M193 367h115v-225h42v-77h-42v-65h-88v65h-192l-4 75zM220 142v140l-105 -140h105z" />
    <glyph glyph-name="five.denom" horiz-adv-x="369" 
d="M315 367v-77h-185v-50h57c80 0 152 -30 151 -125c0 -88 -72 -126 -147 -126c-82 0 -152 32 -153 119h88c1 -29 30 -39 61 -39c33 0 62 12 62 46c0 33 -23 48 -62 48h-143v204h271z" />
    <glyph glyph-name="six.denom" horiz-adv-x="383" 
d="M194 71c33 0 64 13 64 44s-28 46 -63 46c-36 0 -66 -15 -65 -46c0 -31 29 -44 64 -44zM195 236c74 0 152 -24 152 -121c0 -85 -79 -121 -153 -121c-75 0 -152 40 -152 122v137c0 81 75 120 150 120c80 0 151 -32 151 -109h-89c-3 24 -29 33 -61 33c-30 0 -62 -11 -62 -44
v-40c15 15 44 23 64 23z" />
    <glyph glyph-name="seven.denom" horiz-adv-x="323" 
d="M150 0h-99l143 288h-166v79h277l4 -37z" />
    <glyph glyph-name="eight.denom" horiz-adv-x="390" 
d="M124 110c-1 -23 24 -46 71 -46c45 0 71 22 70 46c0 27 -32 45 -69 45c-38 0 -72 -15 -72 -45zM35 110c0 29 19 65 57 80c-30 13 -47 44 -47 73c0 77 69 113 149 113c79 0 152 -36 152 -113c0 -25 -11 -54 -47 -70c38 -15 56 -54 56 -83c1 -89 -79 -120 -161 -119
c-80 0 -161 30 -159 119zM132 262c1 -26 24 -40 63 -40c38 0 60 14 61 40c1 28 -30 42 -62 42s-63 -15 -62 -42z" />
    <glyph glyph-name="nine.denom" horiz-adv-x="382" 
d="M189 295c-33 0 -64 -13 -64 -44s28 -46 63 -46c36 0 66 15 65 46c0 31 -29 44 -64 44zM188 130c-74 0 -152 24 -152 121c0 85 79 121 153 121c75 0 152 -40 152 -122v-137c0 -81 -75 -120 -150 -120c-80 0 -151 32 -151 109h89c3 -24 29 -33 61 -33c30 0 62 11 62 44v40
c-15 -15 -44 -23 -64 -23z" />
    <glyph glyph-name="zero.num" horiz-adv-x="401" 
d="M123 548v-55c0 -106 153 -106 153 0v55c0 109 -153 110 -153 0zM37 495v54c0 216 327 216 327 0v-54c0 -219 -327 -219 -327 0z" />
    <glyph glyph-name="one.num" horiz-adv-x="276" 
d="M36 345v77h62v192l-53 -12v75l141 36v-291h64v-77h-214z" />
    <glyph glyph-name="two.num" horiz-adv-x="371" 
d="M126 597h-88c1 78 74 114 142 114c89 0 154 -35 154 -119c0 -154 -209 -86 -209 -160v-11h204v-85h-293v96c0 147 208 82 208 160c0 31 -26 42 -62 42c-29 0 -55 -12 -56 -37z" />
    <glyph glyph-name="three.num" horiz-adv-x="378" 
d="M187 493h-57v67h53c38 0 61 5 62 39c0 11 -10 39 -61 39c-32 0 -59 -5 -67 -36h-78c0 79 78 111 146 111c70 0 148 -36 149 -114c0 -29 -16 -63 -48 -73c36 -11 57 -45 57 -76c0 -90 -89 -120 -160 -120c-70 0 -150 32 -151 115h92c8 -26 33 -35 62 -35c31 0 64 11 64 38
c0 23 -14 45 -63 45z" />
    <glyph glyph-name="four.num" horiz-adv-x="387" 
d="M193 702h115v-225h42v-77h-42v-65h-88v65h-192l-4 75zM220 477v140l-105 -140h105z" />
    <glyph glyph-name="five.num" horiz-adv-x="368" 
d="M314 701v-77h-185v-50h57c80 0 152 -30 151 -125c0 -88 -72 -126 -147 -126c-82 0 -152 32 -153 119h88c1 -29 30 -39 61 -39c33 0 62 12 62 46c0 33 -23 48 -62 48h-143v204h271z" />
    <glyph glyph-name="six.num" horiz-adv-x="382" 
d="M193 409c33 0 64 13 64 44s-28 46 -63 46c-36 0 -66 -15 -65 -46c0 -31 29 -44 64 -44zM194 574c74 0 152 -24 152 -121c0 -85 -79 -121 -153 -121c-75 0 -152 40 -152 122v137c0 81 75 120 150 120c80 0 151 -32 151 -109h-89c-3 24 -29 33 -61 33
c-30 0 -62 -11 -62 -44v-40c15 15 44 23 64 23z" />
    <glyph glyph-name="seven.num" horiz-adv-x="323" 
d="M150 332h-99l143 288h-166v79h277l4 -37z" />
    <glyph glyph-name="eight.num" horiz-adv-x="390" 
d="M124 447c-1 -23 24 -46 71 -46c45 0 71 22 70 46c0 27 -32 45 -69 45c-38 0 -72 -15 -72 -45zM35 447c0 29 19 65 57 80c-30 13 -47 44 -47 73c0 77 69 113 149 113c79 0 152 -36 152 -113c0 -25 -11 -54 -47 -70c38 -15 56 -54 56 -83c1 -89 -79 -120 -161 -119
c-80 0 -161 30 -159 119zM132 599c1 -26 24 -40 63 -40c38 0 60 14 61 40c1 28 -30 42 -62 42s-63 -15 -62 -42z" />
    <glyph glyph-name="nine.num" horiz-adv-x="381" 
d="M188 634c-33 0 -64 -13 -64 -44s28 -46 63 -46c36 0 66 15 65 46c0 31 -29 44 -64 44zM187 469c-74 0 -152 24 -152 121c0 85 79 121 153 121c75 0 152 -40 152 -122v-137c0 -81 -75 -120 -150 -120c-80 0 -151 32 -151 109h89c3 -24 29 -33 61 -33c30 0 62 11 62 44v40
c-15 -15 -44 -23 -64 -23z" />
    <glyph glyph-name="parenleft.case" horiz-adv-x="367" 
d="M277 799l61 -82c-113 -90 -170 -222 -170 -364c0 -152 57 -272 170 -361l-66 -89c-156 103 -230 281 -230 450c0 167 79 341 235 446z" />
    <glyph glyph-name="parenright.case" horiz-adv-x="366" 
d="M28 722l61 82c156 -105 235 -279 235 -446c0 -169 -74 -347 -230 -450l-64 91c113 89 168 207 168 359c0 142 -57 274 -170 364z" />
    <glyph glyph-name="hyphen.case" horiz-adv-x="503" 
d="M67 283v112h369v-112h-369z" />
    <glyph glyph-name="bracketleft.case" horiz-adv-x="366" 
d="M324 -97h-241v888h241v-108h-118v-670h118v-110z" />
    <glyph glyph-name="bracketright.case" horiz-adv-x="367" 
d="M284 -96h-241v110h118v670h-118v108h241v-888z" />
    <glyph glyph-name="braceleft.case" horiz-adv-x="366" 
d="M323 -7v-95c-148 -27 -217 38 -217 165v140c0 38 -7 84 -70 84v91c63 0 70 46 70 84v140c0 127 69 192 217 165v-95c-65 17 -89 -6 -89 -76v-134c0 -60 5 -108 -70 -130c75 -21 70 -70 70 -129v-134c0 -70 15 -84 89 -76z" />
    <glyph glyph-name="bar.case" horiz-adv-x="284" 
d="M201 752v-836h-118v836h118z" />
    <glyph glyph-name="braceright.case" horiz-adv-x="366" 
d="M43 -102v95c74 -8 89 6 89 76v134c0 59 -5 108 70 129c-75 22 -70 70 -70 130v134c0 70 -24 93 -89 76v95c148 27 217 -38 217 -165v-140c0 -38 7 -84 70 -84v-91c-63 0 -70 -46 -70 -84v-140c0 -127 -69 -192 -217 -165z" />
    <glyph glyph-name="guilsinglleft.case" horiz-adv-x="385" 
d="M52 340l139 221h130l-138 -221l138 -222h-130z" />
    <glyph glyph-name="guilsinglright.case" horiz-adv-x="385" 
d="M194 562l139 -221l-139 -222h-130l138 222l-138 221h130z" />
    <glyph glyph-name="guillemotleft.case" horiz-adv-x="560" 
d="M53 349l139 221h130l-138 -221l138 -222h-130zM229 349l139 221h130l-138 -221l138 -222h-130z" />
    <glyph glyph-name="guillemotright.case" horiz-adv-x="560" 
d="M368 572l139 -221l-139 -222h-130l138 222l-138 221h130zM192 572l139 -221l-139 -222h-130l138 222l-138 221h130z" />
    <glyph glyph-name="endash.case" horiz-adv-x="609" 
d="M68 276v108h473v-108h-473z" />
    <glyph glyph-name="emdash.case" horiz-adv-x="709" 
d="M70 277v108h569v-108h-569z" />
    <glyph glyph-name="bullet.case" horiz-adv-x="410" 
d="M206 198c-74 0 -130 50 -130 126s56 127 130 127c72 0 128 -51 128 -127s-56 -126 -128 -126z" />
    <glyph glyph-name="periodcentered.case" horiz-adv-x="286" 
d="M67 331c0 100 152 100 152 0s-152 -100 -152 0z" />
    <glyph glyph-name="zerosuperior" unicode="&#x2070;" horiz-adv-x="401" 
d="M123 672v-55c0 -106 153 -106 153 0v55c0 109 -153 110 -153 0zM37 619v54c0 216 327 216 327 0v-54c0 -219 -327 -219 -327 0z" />
    <glyph glyph-name="foursuperior" unicode="&#x2074;" horiz-adv-x="390" 
d="M193 829h115v-225h46v-77h-46v-65h-88v65h-192l-4 75zM220 604v140l-105 -140h105z" />
    <glyph glyph-name="fivesuperior" unicode="&#x2075;" horiz-adv-x="368" 
d="M314 828v-77h-185v-50h57c80 0 152 -30 151 -125c0 -88 -72 -126 -147 -126c-82 0 -152 32 -153 119h88c1 -29 30 -39 61 -39c33 0 62 12 62 46c0 33 -23 48 -62 48h-143v204h271z" />
    <glyph glyph-name="sixsuperior" unicode="&#x2076;" horiz-adv-x="382" 
d="M193 533c33 0 64 13 64 44s-28 46 -63 46c-36 0 -66 -15 -65 -46c0 -31 29 -44 64 -44zM194 698c74 0 152 -24 152 -121c0 -85 -79 -121 -153 -121c-75 0 -152 40 -152 122v137c0 81 75 120 150 120c80 0 151 -32 151 -109h-89c-3 24 -29 33 -61 33
c-30 0 -62 -11 -62 -44v-40c15 15 44 23 64 23z" />
    <glyph glyph-name="sevensuperior" unicode="&#x2077;" horiz-adv-x="323" 
d="M150 461h-99l143 288h-166v79h277l4 -37z" />
    <glyph glyph-name="eightsuperior" unicode="&#x2078;" horiz-adv-x="390" 
d="M124 567c-1 -23 24 -46 71 -46c45 0 71 22 70 46c0 27 -32 45 -69 45c-38 0 -72 -15 -72 -45zM35 567c0 29 19 65 57 80c-30 13 -47 44 -47 73c0 77 69 113 149 113c79 0 152 -36 152 -113c0 -25 -11 -54 -47 -70c38 -15 56 -54 56 -83c1 -89 -79 -120 -161 -119
c-80 0 -161 30 -159 119zM132 719c1 -26 24 -40 63 -40c38 0 60 14 61 40c1 28 -30 42 -62 42s-63 -15 -62 -42z" />
    <glyph glyph-name="ninesuperior" unicode="&#x2079;" horiz-adv-x="382" 
d="M189 759c-33 0 -64 -13 -64 -44s28 -46 63 -46c36 0 66 15 65 46c0 31 -29 44 -64 44zM188 594c-74 0 -152 24 -152 121c0 85 79 121 153 121c75 0 152 -40 152 -122v-137c0 -81 -75 -120 -150 -120c-80 0 -151 32 -151 109h89c3 -24 29 -33 61 -33c30 0 62 11 62 44v40
c-15 -15 -44 -23 -64 -23z" />
    <glyph glyph-name="zeroinferior" unicode="&#x2080;" horiz-adv-x="401" 
d="M123 126v-55c0 -106 153 -106 153 0v55c0 109 -153 110 -153 0zM37 73v54c0 216 327 216 327 0v-54c0 -219 -327 -219 -327 0z" />
    <glyph glyph-name="oneinferior" unicode="&#x2081;" horiz-adv-x="274" 
d="M35 -84v77h62v192l-53 -12v75l141 36v-291h64v-77h-214z" />
    <glyph glyph-name="twoinferior" unicode="&#x2082;" horiz-adv-x="372" 
d="M127 177h-88c1 78 74 114 142 114c89 0 154 -35 154 -119c0 -154 -209 -86 -209 -160v-11h204l-1 -85h-292v96c0 147 208 82 208 160c0 31 -26 42 -62 42c-29 0 -55 -12 -56 -37z" />
    <glyph glyph-name="threeinferior" unicode="&#x2083;" horiz-adv-x="378" 
d="M187 74h-57v67h53c38 0 61 5 62 39c0 11 -10 39 -61 39c-32 0 -59 -5 -67 -36h-78c0 79 78 111 146 111c70 0 148 -36 149 -114c0 -29 -16 -63 -48 -73c36 -11 57 -45 57 -76c0 -90 -89 -120 -160 -120c-70 0 -150 32 -151 115h92c8 -26 33 -35 62 -35c31 0 64 11 64 38
c0 23 -14 45 -63 45z" />
    <glyph glyph-name="fourinferior" unicode="&#x2084;" horiz-adv-x="385" 
d="M193 283h115v-225h42v-77h-42v-65h-88v65h-192l-4 75zM220 58v140l-105 -140h105z" />
    <glyph glyph-name="fiveinferior" unicode="&#x2085;" horiz-adv-x="368" 
d="M314 286v-77h-185v-50h57c80 0 152 -30 151 -125c0 -88 -72 -126 -147 -126c-82 0 -152 32 -153 119h88c1 -29 30 -39 61 -39c33 0 62 12 62 46c0 33 -23 48 -62 48h-143v204h271z" />
    <glyph glyph-name="sixinferior" unicode="&#x2086;" horiz-adv-x="382" 
d="M193 -11c33 0 64 13 64 44s-28 46 -63 46c-36 0 -66 -15 -65 -46c0 -31 29 -44 64 -44zM194 154c74 0 152 -24 152 -121c0 -85 -79 -121 -153 -121c-75 0 -152 40 -152 122v137c0 81 75 120 150 120c80 0 151 -32 151 -109h-89c-3 24 -29 33 -61 33
c-30 0 -62 -11 -62 -44v-40c15 15 44 23 64 23z" />
    <glyph glyph-name="seveninferior" unicode="&#x2087;" horiz-adv-x="323" 
d="M150 -84h-99l143 288h-166v79h277l4 -37z" />
    <glyph glyph-name="eightinferior" unicode="&#x2088;" horiz-adv-x="390" 
d="M124 27c-1 -23 24 -46 71 -46c45 0 71 22 70 46c0 27 -32 45 -69 45c-38 0 -72 -15 -72 -45zM35 27c0 29 19 65 57 80c-30 13 -47 44 -47 73c0 77 69 113 149 113c79 0 152 -36 152 -113c0 -25 -11 -54 -47 -70c38 -15 56 -54 56 -83c1 -89 -79 -120 -161 -119
c-80 0 -161 30 -159 119zM132 179c1 -26 24 -40 63 -40c38 0 60 14 61 40c1 28 -30 42 -62 42s-63 -15 -62 -42z" />
    <glyph glyph-name="nineinferior" unicode="&#x2089;" horiz-adv-x="382" 
d="M189 212c-33 0 -64 -13 -64 -44s28 -46 63 -46c36 0 66 15 65 46c0 31 -29 44 -64 44zM188 47c-74 0 -152 24 -152 121c0 85 79 121 153 121c75 0 152 -40 152 -122v-137c0 -81 -75 -120 -150 -120c-80 0 -151 32 -151 109h89c3 -24 29 -33 61 -33c30 0 62 11 62 44v40
c-15 -15 -44 -23 -64 -23z" />
    <glyph glyph-name="afii61289" unicode="&#x2113;" horiz-adv-x="394" 
d="M200 242v-95c0 -60 58 -83 130 -66v-69c-125 -41 -231 -9 -231 151l-49 -24l-14 46c21 9 42 19 62 30v333c0 119 37 167 156 167c112 0 122 -102 110 -193c-13 -111 -85 -208 -164 -280zM197 548c0 -56 -1 -165 -1 -237c49 56 110 143 120 220c6 51 14 132 -60 132
c-40 0 -59 -59 -59 -115z" />
    <glyph glyph-name="uni2117" unicode="&#x2117;" horiz-adv-x="817" 
d="M408 716c232 0 362 -167 362 -365s-130 -365 -362 -365c-231 0 -361 167 -361 365s130 365 361 365zM153 351c1 -151 93 -270 255 -270c163 0 255 119 255 270s-92 270 -255 270c-162 0 -254 -119 -255 -270zM373 265h79c185 0 181 266 -1 266h-175v-367h97v101zM373 444
h78c59 0 59 -95 0 -95h-78v95z" />
    <glyph glyph-name="Omega" unicode="&#x2126;" horiz-adv-x="822" 
d="M411 594c-157 0 -233 -121 -234 -237c-1 -100 53 -202 157 -240v-117h-252v113h94c-86 73 -127 152 -127 247c0 198 151 354 362 354s362 -156 362 -354c0 -95 -41 -174 -127 -247h94v-113h-252v117c104 38 158 140 157 240c-1 116 -77 237 -234 237z" />
    <glyph glyph-name="estimated" unicode="&#x212e;" horiz-adv-x="630" 
d="M323 -7c-148 0 -268 102 -268 296c0 196 119 297 267 297s282 -80 262 -323h-402v-170c38 -35 88 -53 141 -53c78 0 142 24 190 93l37 -29c-60 -85 -134 -111 -227 -111zM322 539c-54 0 -102 -13 -140 -46v-183h283v186c-37 29 -86 43 -143 43z" />
    <glyph glyph-name="onethird" unicode="&#x2153;" horiz-adv-x="793" 
d="M46 334v77h62v192l-53 -12v75l141 36v-291h64v-77h-214zM603 156h-57v67h53c38 0 61 5 62 39c0 11 -10 39 -61 39c-32 0 -59 -5 -67 -36h-78c0 79 78 111 146 111c70 0 148 -36 149 -114c0 -29 -16 -63 -48 -73c36 -11 57 -45 57 -76c0 -90 -89 -120 -160 -120
c-70 0 -150 32 -151 115h92c8 -26 33 -35 62 -35c31 0 64 11 64 38c0 23 -14 45 -63 45zM514 707h103l-389 -711h-101z" />
    <glyph glyph-name="twothirds" unicode="&#x2154;" horiz-adv-x="871" 
d="M681 156h-57v67h53c38 0 61 5 62 39c0 11 -10 39 -61 39c-32 0 -59 -5 -67 -36h-78c0 79 78 111 146 111c70 0 148 -36 149 -114c0 -29 -16 -63 -48 -73c36 -11 57 -45 57 -76c0 -90 -89 -120 -160 -120c-70 0 -150 32 -151 115h92c8 -26 33 -35 62 -35c31 0 64 11 64 38
c0 23 -14 45 -63 45zM592 707h103l-389 -711h-101zM136 595h-88c1 78 74 114 142 114c89 0 154 -35 154 -119c0 -154 -209 -86 -209 -160v-11h204l-1 -85h-292v96c0 147 208 82 208 160c0 31 -26 42 -62 42c-29 0 -55 -12 -56 -37z" />
    <glyph glyph-name="oneeighth" unicode="&#x215b;" horiz-adv-x="809" 
d="M46 334v77h62v192l-53 -12v75l141 36v-291h64v-77h-214zM514 707h103l-389 -711h-101zM544 111c-1 -23 24 -46 71 -46c45 0 71 22 70 46c0 27 -32 45 -69 45c-38 0 -72 -15 -72 -45zM455 111c0 29 19 65 57 80c-30 13 -47 44 -47 73c0 77 69 113 149 113
c79 0 152 -36 152 -113c0 -25 -11 -54 -47 -70c38 -15 56 -54 56 -83c1 -89 -79 -120 -161 -119c-80 0 -161 30 -159 119zM552 263c1 -26 24 -40 63 -40c38 0 60 14 61 40c1 28 -30 42 -62 42s-63 -15 -62 -42z" />
    <glyph glyph-name="threeeighths" unicode="&#x215c;" horiz-adv-x="876" 
d="M581 707h103l-389 -711h-101zM611 111c-1 -23 24 -46 71 -46c45 0 71 22 70 46c0 27 -32 45 -69 45c-38 0 -72 -15 -72 -45zM522 111c0 29 19 65 57 80c-30 13 -47 44 -47 73c0 77 69 113 149 113c79 0 152 -36 152 -113c0 -25 -11 -54 -47 -70c38 -15 56 -54 56 -83
c1 -89 -79 -120 -161 -119c-80 0 -161 30 -159 119zM619 263c1 -26 24 -40 63 -40c38 0 60 14 61 40c1 28 -30 42 -62 42s-63 -15 -62 -42zM192 488h-57v67h53c38 0 61 5 62 39c0 11 -10 39 -61 39c-32 0 -59 -5 -67 -36h-78c0 79 78 111 146 111c70 0 148 -36 149 -114
c0 -29 -16 -63 -48 -73c36 -11 57 -45 57 -76c0 -90 -89 -120 -160 -120c-70 0 -150 32 -151 115h92c8 -26 33 -35 62 -35c31 0 64 11 64 38c0 23 -14 45 -63 45z" />
    <glyph glyph-name="fiveeighths" unicode="&#x215d;" horiz-adv-x="873" 
d="M578 707h103l-389 -711h-101zM608 111c-1 -23 24 -46 71 -46c45 0 71 22 70 46c0 27 -32 45 -69 45c-38 0 -72 -15 -72 -45zM519 111c0 29 19 65 57 80c-30 13 -47 44 -47 73c0 77 69 113 149 113c79 0 152 -36 152 -113c0 -25 -11 -54 -47 -70c38 -15 56 -54 56 -83
c1 -89 -79 -120 -161 -119c-80 0 -161 30 -159 119zM616 263c1 -26 24 -40 63 -40c38 0 60 14 61 40c1 28 -30 42 -62 42s-63 -15 -62 -42zM318 699v-77h-185v-50h57c80 0 152 -30 151 -125c0 -88 -72 -126 -147 -126c-82 0 -152 32 -153 119h88c1 -29 30 -39 61 -39
c33 0 62 12 62 46c0 33 -23 48 -62 48h-143v204h271z" />
    <glyph glyph-name="seveneighths" unicode="&#x215e;" horiz-adv-x="789" 
d="M484 707h103l-389 -711h-101zM524 111c-1 -23 24 -46 71 -46c45 0 71 22 70 46c0 27 -32 45 -69 45c-38 0 -72 -15 -72 -45zM435 111c0 29 19 65 57 80c-30 13 -47 44 -47 73c0 77 69 113 149 113c79 0 152 -36 152 -113c0 -25 -11 -54 -47 -70c38 -15 56 -54 56 -83
c1 -89 -79 -120 -161 -119c-80 0 -161 30 -159 119zM532 263c1 -26 24 -40 63 -40c38 0 60 14 61 40c1 28 -30 42 -62 42s-63 -15 -62 -42zM160 333h-99l143 288h-166v79h277l4 -37z" />
    <glyph glyph-name="arrowleft" unicode="&#x2190;" horiz-adv-x="628" 
d="M267 115l-236 235l237 235l64 -61l-120 -121h363v-108h-364l117 -124z" />
    <glyph glyph-name="arrowup" unicode="&#x2191;" horiz-adv-x="532" 
d="M31 395l235 236l235 -237l-61 -64l-121 120v-363h-108v364l-124 -117z" />
    <glyph glyph-name="arrowright" unicode="&#x2192;" horiz-adv-x="630" 
d="M363 586l236 -235l-237 -235l-64 61l120 121h-363v108h364l-117 124z" />
    <glyph glyph-name="arrowdown" unicode="&#x2193;" horiz-adv-x="532" 
d="M501 308l-235 -236l-235 237l61 64l121 -120v363h108v-364l124 117z" />
    <glyph glyph-name="uni2196" unicode="&#x2196;" horiz-adv-x="515" 
d="M61 207v333l333 -1l3 -88l-171 -1l257 -257l-77 -76l-257 257l-5 -170z" />
    <glyph glyph-name="uni2197" unicode="&#x2197;" horiz-adv-x="515" 
d="M121 539h333l-1 -333l-88 -3l-1 171l-257 -257l-76 77l257 257l-170 5z" />
    <glyph glyph-name="uni2198" unicode="&#x2198;" horiz-adv-x="552" 
d="M460 155h-333l-3 83l170 5l-257 257l76 77l257 -257l1 171l88 -3z" />
    <glyph glyph-name="uni2199" unicode="&#x2199;" horiz-adv-x="552" 
d="M425 155h-333l1 333l88 3l1 -171l257 257l76 -77l-257 -257l170 -5z" />
    <glyph glyph-name="partialdiff" unicode="&#x2202;" horiz-adv-x="586" 
d="M235 478c54 8 122 -3 154 -31c-31 80 -166 143 -246 155l22 99c228 -30 381 -209 381 -450c0 -153 -95 -260 -254 -260c-170 0 -255 122 -255 247c0 109 66 216 198 240zM292 100c86 0 129 69 129 139c0 69 -43 138 -129 138s-130 -69 -130 -138c0 -70 44 -139 130 -139z
" />
    <glyph glyph-name="Delta" unicode="&#x2206;" horiz-adv-x="824" 
d="M484 700l314 -700h-772l314 700h144zM412 556l-191 -436h380z" />
    <glyph glyph-name="product" unicode="&#x220f;" horiz-adv-x="690" 
d="M607 -191h-131v769h-261v-769h-132v891h524v-891z" />
    <glyph glyph-name="summation" unicode="&#x2211;" horiz-adv-x="596" 
d="M386 363l-166 -238h324v-125h-505v76l201 289l-189 273v62h487v-121h-297z" />
    <glyph glyph-name="uni2215" unicode="&#x2215;" horiz-adv-x="466" 
d="M376 707h106l-388 -711h-105z" />
    <glyph glyph-name="uni2219" unicode="&#x2219;" horiz-adv-x="266" 
d="M57 315c0 100 152 100 152 0s-152 -100 -152 0z" />
    <glyph glyph-name="radical" unicode="&#x221a;" 
d="M605 697l-231 -697h-88l-165 320l-78 -32l-31 75l180 81l146 -312l196 586z" />
    <glyph glyph-name="infinity" unicode="&#x221e;" horiz-adv-x="758" 
d="M216 161c-111 2 -166 80 -166 159c0 82 59 164 172 164c56 0 113 -45 156 -96c44 49 105 96 158 96c114 0 173 -82 173 -164c0 -79 -55 -157 -166 -159c-63 -2 -119 43 -165 95c-45 -52 -101 -97 -162 -95zM218 255c39 0 68 29 97 57c4 4 4 6 9 9l-5 6
c-31 32 -61 64 -101 64c-52 0 -79 -34 -79 -69c0 -34 27 -66 79 -67zM541 255c53 1 78 34 78 67c0 35 -26 69 -78 69c-40 0 -71 -32 -101 -64l-5 -6c3 -2 7 -7 10 -9h-1c28 -28 59 -57 97 -57z" />
    <glyph glyph-name="integral" unicode="&#x222b;" horiz-adv-x="492" 
d="M177 -2v521c0 132 89 193 188 193c43 0 88 -14 128 -40l-45 -91c-26 17 -50 26 -75 26c-42 0 -74 -28 -74 -88v-521c0 -132 -89 -193 -188 -193c-43 0 -73 10 -113 36l45 91c26 -17 35 -22 60 -22c42 0 74 28 74 88z" />
    <glyph glyph-name="approxequal" unicode="&#x2248;" horiz-adv-x="582" 
d="M147 326l-80 47c24 54 73 86 120 94c74 11 126 -37 185 -45c32 -5 56 5 67 38l79 -37c-24 -68 -76 -114 -160 -99c-52 9 -113 52 -158 45c-18 -3 -39 -21 -53 -43zM147 113l-80 47c25 57 72 86 120 94c74 11 126 -37 185 -45c32 -5 57 6 68 39l78 -38
c-24 -68 -76 -114 -160 -99c-52 9 -113 52 -158 45c-23 -3 -37 -18 -53 -43z" />
    <glyph glyph-name="notequal" unicode="&#x2260;" horiz-adv-x="591" 
d="M79 143v110h158l66 116h-224v111h288l46 81l51 -29l-30 -52h77v-111h-140l-66 -116h206v-110h-269l-45 -80l-51 30l28 50h-95z" />
    <glyph glyph-name="lessequal" unicode="&#x2264;" horiz-adv-x="454" 
d="M58 79v99h334v-99h-334zM66 427v13l240 205l71 -74l-163 -138l163 -137l-71 -74z" />
    <glyph glyph-name="greaterequal" unicode="&#x2265;" horiz-adv-x="454" 
d="M396 178v-99h-334v99h334zM388 440v-13l-240 -205l-71 74l162 137l-162 138l71 74z" />
    <glyph glyph-name="lozenge" unicode="&#x25ca;" horiz-adv-x="589" 
d="M558 351l-213 -343h-101l-213 343l213 345h101zM161 351l134 -231l133 231l-133 232z" />
    <glyph glyph-name="a.alt" horiz-adv-x="554" 
d="M242 506c140 0 252 -42 252 -197v-309h-110l-8 48c-38 -39 -105 -55 -157 -55c-98 0 -190 47 -190 165c0 110 97 163 198 163c45 0 107 -8 145 -35v23c0 68 -67 91 -130 91c-57 0 -121 -18 -157 -34l-18 96c57 27 117 44 175 44zM151 158c0 -45 48 -65 95 -65
c55 0 127 33 127 93c-29 23 -83 36 -120 36c-56 0 -102 -19 -102 -64z" />
    <glyph glyph-name="agrave.alt" horiz-adv-x="554" 
d="M242 506c140 0 252 -42 252 -197v-309h-110l-8 48c-38 -39 -105 -55 -157 -55c-98 0 -190 47 -190 165c0 110 97 163 198 163c45 0 107 -8 145 -35v23c0 68 -67 91 -130 91c-57 0 -121 -18 -157 -34l-18 96c57 27 117 44 175 44zM151 158c0 -45 48 -65 95 -65
c55 0 127 33 127 93c-29 23 -83 36 -120 36c-56 0 -102 -19 -102 -64zM135 704v5h144l66 -128v-6h-108z" />
    <glyph glyph-name="aacute.alt" horiz-adv-x="554" 
d="M242 506c-58 0 -118 -17 -175 -44l18 -96c36 16 100 34 157 34c63 0 130 -23 130 -91v-23c-38 27 -100 35 -145 35c-101 0 -198 -53 -198 -163c0 -118 92 -165 190 -165c52 0 119 16 157 55l8 -48h110v309c0 155 -112 197 -252 197zM151 158c0 45 46 64 102 64
c37 0 91 -13 120 -36c0 -60 -72 -93 -127 -93c-47 0 -95 20 -95 65zM412 709v-5l-102 -129h-108v6l66 128h144z" />
    <glyph glyph-name="acircumflex.alt" horiz-adv-x="554" 
d="M242 506c140 0 252 -42 252 -197v-309h-110l-8 48c-38 -39 -105 -55 -157 -55c-98 0 -190 47 -190 165c0 110 97 163 198 163c45 0 107 -8 145 -35v23c0 68 -67 91 -130 91c-57 0 -121 -18 -157 -34l-18 96c57 27 117 44 175 44zM151 158c0 -45 48 -65 95 -65
c55 0 127 33 127 93c-29 23 -83 36 -120 36c-56 0 -102 -19 -102 -64zM87 575l148 138h67l148 -138v-6h-124l-58 59l-57 -59h-124v6z" />
    <glyph glyph-name="atilde.alt" horiz-adv-x="554" 
d="M242 506c140 0 252 -42 252 -197v-309h-110l-8 48c-38 -39 -105 -55 -157 -55c-98 0 -190 47 -190 165c0 110 97 163 198 163c45 0 107 -8 145 -35v23c0 68 -67 91 -130 91c-57 0 -121 -18 -157 -34l-18 96c57 27 117 44 175 44zM151 158c0 -45 48 -65 95 -65
c55 0 127 33 127 93c-29 23 -83 36 -120 36c-56 0 -102 -19 -102 -64zM185 585l-76 41c24 59 74 101 140 86c47 -11 90 -63 121 -1l80 -38c-29 -77 -76 -100 -123 -88c-49 14 -103 73 -142 0z" />
    <glyph glyph-name="adieresis.alt" horiz-adv-x="554" 
d="M242 506c-58 0 -118 -17 -175 -44l18 -96c36 16 100 34 157 34c63 0 130 -23 130 -91v-23c-38 27 -100 35 -145 35c-101 0 -198 -53 -198 -163c0 -118 92 -165 190 -165c52 0 119 16 157 55l8 -48h110v309c0 155 -112 197 -252 197zM151 158c0 45 46 64 102 64
c37 0 91 -13 120 -36c0 -60 -72 -93 -127 -93c-47 0 -95 20 -95 65zM94 648c0 93 140 93 140 0c0 -92 -140 -92 -140 0zM319 648c0 93 140 93 140 0c0 -92 -140 -92 -140 0z" />
    <glyph glyph-name="amacron.alt" horiz-adv-x="554" 
d="M242 506c140 0 252 -42 252 -197v-309h-110l-8 48c-38 -39 -105 -55 -157 -55c-98 0 -190 47 -190 165c0 110 97 163 198 163c45 0 107 -8 145 -35v23c0 68 -67 91 -130 91c-57 0 -121 -18 -157 -34l-18 96c57 27 117 44 175 44zM151 158c0 -45 48 -65 95 -65
c55 0 127 33 127 93c-29 23 -83 36 -120 36c-56 0 -102 -19 -102 -64zM105 604v98h341v-98h-341z" />
    <glyph glyph-name="abreve.alt" horiz-adv-x="554" 
d="M242 506c140 0 252 -42 252 -197v-309h-110l-8 48c-38 -39 -105 -55 -157 -55c-98 0 -190 47 -190 165c0 110 97 163 198 163c45 0 107 -8 145 -35v23c0 68 -67 91 -130 91c-57 0 -121 -18 -157 -34l-18 96c57 27 117 44 175 44zM151 158c0 -45 48 -65 95 -65
c55 0 127 33 127 93c-29 23 -83 36 -120 36c-56 0 -102 -19 -102 -64zM321 709h98c16 -198 -319 -195 -303 0h99c0 -74 106 -75 106 0z" />
    <glyph glyph-name="aring.alt" horiz-adv-x="554" 
d="M242 506c140 0 252 -42 252 -197v-309h-110l-8 48c-38 -39 -105 -55 -157 -55c-98 0 -190 47 -190 165c0 110 97 163 198 163c45 0 107 -8 145 -35v23c0 68 -67 91 -130 91c-57 0 -121 -18 -157 -34l-18 96c57 27 117 44 175 44zM151 158c0 -45 48 -65 95 -65
c55 0 127 33 127 93c-29 23 -83 36 -120 36c-56 0 -102 -19 -102 -64zM144 667c0 73 63 110 126 110c61 0 124 -37 124 -110c0 -72 -63 -108 -124 -108c-63 0 -126 36 -126 108zM268 714c-73 0 -72 -92 0 -92c74 0 70 92 0 92z" />
    <glyph glyph-name="aringacute.alt" horiz-adv-x="554" 
d="M242 506c-58 0 -118 -17 -175 -44l18 -96c36 16 100 34 157 34c63 0 130 -23 130 -91v-23c-38 27 -100 35 -145 35c-101 0 -198 -53 -198 -163c0 -118 92 -165 190 -165c52 0 119 16 157 55l8 -48h110v309c0 155 -112 197 -252 197zM151 158c0 45 46 64 102 64
c37 0 91 -13 120 -36c0 -60 -72 -93 -127 -93c-47 0 -95 20 -95 65zM154 635c0 -66 59 -98 118 -98c57 0 116 32 116 98c0 65 -59 99 -116 99c-59 0 -118 -34 -118 -99zM270 677c66 0 70 -83 0 -83c-67 0 -68 83 0 83zM436 859v-3l-108 -98h-107v4l73 97h142z" />
    <glyph glyph-name="aogonek.alt" horiz-adv-x="554" 
d="M151 158c0 -45 48 -65 95 -65c55 0 127 33 127 93c-29 23 -83 36 -120 36c-56 0 -102 -19 -102 -64zM242 506c140 0 252 -42 252 -197v-357c-41 7 -119 -11 -108 -55c6 -26 60 -43 106 -4l62 -47c-58 -94 -239 -80 -259 24c-6 31 -3 91 89 126l-8 52
c-38 -39 -105 -55 -157 -55c-98 0 -190 47 -190 165c0 110 97 163 198 163c45 0 107 -8 145 -35v23c0 68 -67 91 -130 91c-57 0 -121 -18 -157 -34l-18 96c57 27 117 44 175 44z" />
    <glyph glyph-name="y.alt" 
d="M58 493h122v-258c0 -75 41 -132 119 -132c75 0 126 63 126 138v252h121v-505c0 -168 -117 -245 -236 -245c-131 0 -230 64 -242 193h120c16 -59 58 -81 119 -81s123 48 123 136v75c-48 -59 -99 -74 -168 -74c-118 0 -204 89 -204 242v259z" />
    <glyph glyph-name="yacute.alt" 
d="M180 493h-122v-259c0 -153 86 -242 204 -242c69 0 120 15 168 74v-75c0 -88 -62 -136 -123 -136s-103 22 -119 81h-120c12 -129 111 -193 242 -193c119 0 236 77 236 245v505h-121v-252c0 -75 -51 -138 -126 -138c-78 0 -119 57 -119 132v258zM452 701v-5l-110 -137h-108
v6l74 136h144z" />
    <glyph glyph-name="ycircumflex.alt" 
d="M58 493h122v-258c0 -75 41 -132 119 -132c75 0 126 63 126 138v252h121v-505c0 -168 -117 -245 -236 -245c-131 0 -230 64 -242 193h120c16 -59 58 -81 119 -81s123 48 123 136v75c-48 -59 -99 -74 -168 -74c-118 0 -204 89 -204 242v259zM114 580l151 135h68l150 -135
v-6h-126l-59 58l-58 -58h-126v6z" />
    <glyph glyph-name="ydieresis.alt" 
d="M180 493h-122v-259c0 -153 86 -242 204 -242c69 0 120 15 168 74v-75c0 -88 -62 -136 -123 -136s-103 22 -119 81h-120c12 -129 111 -193 242 -193c119 0 236 77 236 245v505h-121v-252c0 -75 -51 -138 -126 -138c-78 0 -119 57 -119 132v258zM118 637c0 93 140 93 140 0
c0 -92 -140 -92 -140 0zM367 637c0 93 140 93 140 0c0 -92 -140 -92 -140 0z" />
    <glyph glyph-name="ygrave.alt" 
d="M58 493h122v-258c0 -75 41 -132 119 -132c75 0 126 63 126 138v252h121v-505c0 -168 -117 -245 -236 -245c-131 0 -230 64 -242 193h120c16 -59 58 -81 119 -81s123 48 123 136v75c-48 -59 -99 -74 -168 -74c-118 0 -204 89 -204 242v259zM162 696v5h144l74 -136v-6h-108
z" />
    </font>
</defs>
</svg>
